<?xml version="1.0" encoding="utf-8"?>
<!-- Generator: Adobe Illustrator 21.0.2, SVG Export Plug-In . SVG Version: 6.00 Build 0)  -->
<!DOCTYPE svg PUBLIC "-//W3C//DTD SVG 1.1//EN" "http://www.w3.org/Graphics/SVG/1.1/DTD/svg11.dtd">
<svg version="1.1" id="Layer_1" xmlns="http://www.w3.org/2000/svg" xmlns:xlink="http://www.w3.org/1999/xlink" x="0px" y="0px"
	 viewBox="0 0 560 140" style="enable-background:new 0 0 560 140;" xml:space="preserve">
<style type="text/css">
	.st0{clip-path:url(#SVGID_2_);fill:#003052;}
	.st1{clip-path:url(#SVGID_2_);}
	.st2{fill:none;stroke:#FFFFFF;stroke-width:1.8986;}
	.st3{fill:#FFFFFF;}
	.st4{clip-path:url(#SVGID_4_);fill:none;stroke:#FFFFFF;stroke-width:0.3382;}
	.st5{clip-path:url(#SVGID_4_);fill:#00529B;}
	.st6{clip-path:url(#SVGID_4_);}
	.st7{fill:none;stroke:#FFFFFF;stroke-width:1.5462;}
	.st8{clip-path:url(#SVGID_6_);fill:#F2CE1E;}
	.st9{clip-path:url(#SVGID_6_);}
	.st10{fill:none;stroke:#FFFFFF;stroke-width:1.7799;}
	.st11{clip-path:url(#SVGID_6_);fill:#FFFFFF;}
	.st12{fill:#085F5D;}
	.st13{fill:none;stroke:#FFFFFF;stroke-width:1.3646;}
	.st14{fill:#00529B;}
</style>
<g>
	<g>
		<defs>
			<rect id="SVGID_1_" y="4.7" width="191.1" height="104.8"/>
		</defs>
		<clipPath id="SVGID_2_">
			<use xlink:href="#SVGID_1_"  style="overflow:visible;"/>
		</clipPath>
		<path class="st0" d="M127.2,82c0,42.8-34.7,77.5-77.5,77.5c-42.8,0-77.5-34.7-77.5-77.5c0-42.8,34.7-77.5,77.5-77.5
			C92.5,4.6,127.2,39.2,127.2,82"/>
		<g class="st1">
			<g>
				<g>
					<path class="st2" d="M104.9,133.2C97.2,164,65.5,182.7,34.1,175c-31.4-7.7-50.6-39-42.9-69.8c6.1-24.4,27.3-41.3,51.4-43.4"/>
					<g>
						
							<ellipse transform="matrix(0.9971 -7.619051e-02 7.619051e-02 0.9971 -4.59 3.4143)" class="st3" cx="42.5" cy="61.9" rx="3.1" ry="3.1"/>
					</g>
				</g>
				<g>
					<path class="st2" d="M67.5,137.6c-6.5,6.4-16.2,9.4-25.8,7c-14.6-3.6-23.5-18.1-19.9-32.4c2.8-11.2,12.5-19,23.5-20.1"/>
					<g>
						
							<ellipse transform="matrix(0.9985 -5.496864e-02 5.496864e-02 0.9985 -4.9969 2.6194)" class="st3" cx="45.1" cy="92.1" rx="3.1" ry="3.1"/>
					</g>
				</g>
				<g>
					<path class="st2" d="M27.4,89.3c8.4-5.8,19.2-8.1,29.9-5.4C77,88.7,89,108.3,84.2,127.6c-4.8,19.3-24.6,31-44.3,26.2
						c-10.6-2.6-18.9-9.5-23.7-18.3"/>
					<g>
						
							<ellipse transform="matrix(0.892 -0.452 0.452 0.892 -59.5162 22.0307)" class="st3" cx="16.4" cy="135.6" rx="3.1" ry="3.1"/>
					</g>
				</g>
				<g>
					<path class="st2" d="M1.5,131.1c-2.1-7.6-2.4-15.8-0.3-24c6.4-25.5,32.6-41,58.5-34.6c25.9,6.4,41.8,32.2,35.5,57.7
						c-4,16.1-16,28.3-30.8,33.4"/>
					<g>
						
							<ellipse transform="matrix(0.9543 -0.299 0.299 0.9543 -45.9545 26.7455)" class="st3" cx="64.4" cy="163.6" rx="3.1" ry="3.1"/>
					</g>
				</g>
				<g>
					<path class="st2" d="M20.9,54.7c11.9-5.1,31.4-6.2,44.4-3c37.7,9.3,60.8,46.8,51.6,83.9c-9.2,37-47.3,59.5-85,50.2
						C3.1,178.8-17.2,155.2-21,128"/>
					<g>
						
							<ellipse transform="matrix(0.9906 -0.1367 0.1367 0.9906 -17.7105 -1.6647)" class="st3" cx="-21" cy="128.1" rx="3.1" ry="3.1"/>
					</g>
				</g>
				<g>
					<path class="st2" d="M114,166.5c-19.1,25.1-52.3,37.8-85.2,29.7c-44-10.8-70.9-54.6-60.1-97.7C-20.5,55.2,23.8,29,67.8,39.8
						c10,2.5,19,6.6,27,12"/>
					<g>
						
							<ellipse transform="matrix(0.5736 -0.8191 0.8191 0.5736 -2.0815 99.6124)" class="st3" cx="94.6" cy="51.8" rx="3.1" ry="3.1"/>
					</g>
				</g>
			</g>
		</g>
	</g>
	<g>
		<defs>
			<rect id="SVGID_3_" y="-5" width="191.1" height="115.3"/>
		</defs>
		<clipPath id="SVGID_4_">
			<use xlink:href="#SVGID_3_"  style="overflow:visible;"/>
		</clipPath>
		<path class="st4" d="M123.6,130.1h0.9c0.5,0,0.7,0,0.8,0c0.2,0,0.3,0.1,0.4,0.2c0.1,0.1,0.1,0.3,0.1,0.5c0,0.2,0,0.3-0.1,0.4
			c-0.1,0.1-0.2,0.2-0.3,0.2c-0.1,0-0.5,0.1-1,0.1h-0.8V130.1z M123.6,134.7v-2.3h0.2c0.3,0,0.4,0,0.6,0.1s0.2,0.1,0.3,0.2
			c0.1,0.1,0.3,0.4,0.6,0.8l0.8,1.2h1.3l-0.7-1.1c-0.3-0.4-0.5-0.7-0.6-0.9c-0.2-0.2-0.4-0.3-0.6-0.5c0.5-0.1,0.9-0.2,1.1-0.5
			c0.2-0.3,0.4-0.6,0.4-1c0-0.3-0.1-0.6-0.2-0.9c-0.2-0.3-0.4-0.4-0.6-0.5c-0.3-0.1-0.7-0.1-1.3-0.1h-2.4v5.6H123.6z"/>
		<path class="st5" d="M119.7-19.7c0,40.1-32.5,72.6-72.6,72.6c-40.1,0-72.6-32.5-72.6-72.6c0-40.1,32.5-72.6,72.6-72.6
			C87.2-92.4,119.7-59.8,119.7-19.7"/>
		<g class="st6">
			<g>
				<g>
					<path class="st7" d="M86.2,4.8c-11.6,21.3-38.6,29-60.4,17.3C4.1,10.3-4-16.5,7.6-37.8C16.8-54.6,35.6-63,53.8-60"/>
					<g>
						
							<ellipse transform="matrix(0.1775 -0.9841 0.9841 0.1775 103.124 3.4945)" class="st3" cx="53.7" cy="-59.9" rx="2.5" ry="2.5"/>
					</g>
				</g>
				<g>
					<path class="st7" d="M57.7,0.8c-6,3.5-13.8,3.8-20.4,0.2c-10.1-5.5-13.9-17.9-8.5-27.8c4.2-7.7,12.8-11.6,21.1-10.3"/>
					<g>
						
							<ellipse transform="matrix(0.1946 -0.9809 0.9809 0.1946 76.4479 19.0015)" class="st3" cx="49.8" cy="-37.1" rx="2.5" ry="2.5"/>
					</g>
				</g>
				<g>
					<path class="st7" d="M37.4-42.5c7.3-2.7,15.7-2.3,23.1,1.7C74.1-33.4,79.3-16.7,72-3.3C64.7,10,47.8,14.8,34.2,7.5
						C27,3.5,22.1-3.1,20.3-10.4"/>
					<g>
						
							<ellipse transform="matrix(0.9771 -0.2126 0.2126 0.9771 2.6575 4.0943)" class="st3" cx="20.4" cy="-10.3" rx="2.5" ry="2.5"/>
					</g>
				</g>
				<g>
					<path class="st7" d="M10.2-16.6c-0.1-6,1.3-12.1,4.4-17.8c9.6-17.6,31.9-24,49.9-14.3C82.4-39,89.2-16.9,79.6,0.8
						c-6.1,11.1-17.2,17.7-29.1,18.7"/>
					<g>
						
							<ellipse transform="matrix(0.9987 -5.163906e-02 5.163906e-02 0.9987 -0.9366 2.6408)" class="st3" cx="50.6" cy="19.4" rx="2.5" ry="2.5"/>
					</g>
				</g>
				<g>
					<path class="st7" d="M44.4-69.5c9.5-0.4,19.3,1.7,28.2,6.5c26.1,14.1,35.9,46.3,22,71.9c-14,25.6-46.4,34.9-72.5,20.8
						C2.3,18.9-8.2-2.3-5.8-23.1"/>
					<g>
						
							<ellipse transform="matrix(0.1174 -0.9931 0.9931 0.1174 17.7187 -26.1015)" class="st3" cx="-5.8" cy="-23" rx="2.5" ry="2.5"/>
					</g>
				</g>
				<g>
					<path class="st7" d="M86.6,31.1C67.6,46,40.7,49,17.9,36.7C-12.5,20.2-24-17.3-7.7-47.1C8.5-76.9,46.4-87.8,76.7-71.3
						c6.8,3.7,12.7,8.5,17.5,14"/>
					<g>
						
							<ellipse transform="matrix(0.7455 -0.6665 0.6665 0.7455 62.2151 48.1527)" class="st3" cx="94.2" cy="-57.4" rx="2.5" ry="2.5"/>
					</g>
				</g>
			</g>
		</g>
	</g>
	<g>
		<defs>
			<rect id="SVGID_5_" x="10.2" y="-5" width="218.8" height="133.1"/>
		</defs>
		<clipPath id="SVGID_6_">
			<use xlink:href="#SVGID_5_"  style="overflow:visible;"/>
		</clipPath>
		<path class="st8" d="M225.2,2.1c0,36.6-30.7,66.2-68.5,66.2c-37.8,0-68.5-29.7-68.5-66.2c0-36.6,30.7-66.2,68.5-66.2
			C194.5-64.2,225.2-34.5,225.2,2.1"/>
		<g class="st9">
			<g>
				<g>
					<path class="st10" d="M199.3,11.8c-4.7,21-26,35.1-48.9,31.8c-23.9-3.4-40.4-24.3-37-46.7c2.8-18.5,18.3-32.3,37.1-34.6"/>
					<g>
						
							<ellipse transform="matrix(0.2029 -0.9792 0.9792 0.2029 147.1087 204.5661)" class="st3" cx="199.2" cy="11.9" rx="2.9" ry="2.9"/>
					</g>
				</g>
				<g>
					<path class="st10" d="M170.5,16.7c-4.3,3.8-10.4,5.7-16.7,4.8C142.7,20,135,10.2,136.6-0.2c1.4-8.9,9-15.4,18.1-16.2"/>
					<g>
						<ellipse transform="matrix(0.7141 -0.7 0.7 0.7141 36.9461 124.0287)" class="st3" cx="170.3" cy="16.8" rx="2.9" ry="2.9"/>
					</g>
				</g>
				<g>
					<path class="st10" d="M141.3-18.4c5.5-3.6,12.4-5.3,19.6-4.3c14.9,2.1,25.3,15.2,23.2,29.2c-2.1,14-16,23.7-30.9,21.6
						c-8.8-1.2-16-6.3-20-13.2"/>
					<g>
						
							<ellipse transform="matrix(0.8102 -0.5861 0.5861 0.8102 37.6765 79.3932)" class="st3" cx="141.4" cy="-18.5" rx="2.9" ry="2.9"/>
					</g>
				</g>
				<g>
					<path class="st10" d="M122.1,12.1c-1.4-4.6-1.9-9.5-1.1-14.5c2.8-18.5,21.1-31.3,40.8-28.5c19.7,2.8,33.4,20.1,30.6,38.6
						C190.4,20.2,181.6,30,170,34.3"/>
					<g>
						
							<ellipse transform="matrix(0.9432 -0.3322 0.3322 0.9432 2.9666 41.2237)" class="st3" cx="122" cy="11.9" rx="2.9" ry="2.9"/>
					</g>
				</g>
				<g>
					<path class="st10" d="M138.9-43.7c7.9-2.7,16.6-3.6,25.5-2.4c28.6,4,48.6,29.2,44.5,56.1c-4.1,26.9-30.6,45.5-59.3,41.5
						c-22.6-3.2-39.8-19.6-44-39.6"/>
					<g>
						
							<ellipse transform="matrix(0.9405 -0.3399 0.3399 0.9405 23.1504 44.6617)" class="st3" cx="139.1" cy="-43.8" rx="2.9" ry="2.9"/>
					</g>
				</g>
				<g>
					<path class="st10" d="M207.5,34.4c-12.6,17.7-35.4,28-59.4,24.6c-33.4-4.7-56.6-34-51.8-65.4c4.8-31.4,35.7-53,69.1-48.3
						c8.3,1.2,16,3.9,22.8,7.8"/>
					<g>
						
							<ellipse transform="matrix(0.5719 -0.8203 0.8203 0.5719 60.4689 184.8958)" class="st3" cx="207.4" cy="34.5" rx="2.9" ry="2.9"/>
					</g>
				</g>
			</g>
		</g>
		<path class="st11" d="M146.1-53.1c0.1-0.8,0.8-1.4,1.6-1.3c0.8,0.1,1.4,0.8,1.4,1.6c-0.1,0.8-0.8,1.4-1.6,1.3
			C146.7-51.6,146.1-52.3,146.1-53.1"/>
	</g>
	<path class="st12" d="M219.6,79.9c0,31-25.9,56.1-57.9,56.1c-32,0-57.9-25.1-57.9-56.1c0-31,25.9-56.1,57.9-56.1
		C193.7,23.8,219.6,48.9,219.6,79.9"/>
	<g>
		<g>
			<g>
				<g>
					<g>
						<path class="st13" d="M196.7,83.4c-1.5,18.4-17.4,32.7-36.5,32.3c-19.7-0.4-35.3-16.5-34.9-35.8c0.4-16,11.6-29.2,26.6-33.2"
							/>
						<g>
							
								<ellipse transform="matrix(7.548834e-02 -0.9971 0.9971 7.548834e-02 98.5709 273.2791)" class="st3" cx="196.7" cy="83.5" rx="2.1" ry="2.1"/>
						</g>
					</g>
					<g>
						<path class="st13" d="M174,90.6c-3.1,3.8-7.9,6.1-13.2,6c-9.2-0.2-16.4-7.6-16.2-16.6c0.2-7.7,5.7-14,13-15.6"/>
						<g>
							
								<ellipse transform="matrix(0.5934 -0.8049 0.8049 0.5934 -2.2808 176.8388)" class="st3" cx="173.9" cy="90.7" rx="2.1" ry="2.1"/>
						</g>
					</g>
					<g>
						<path class="st13" d="M146.3,64.2c4.1-3.7,9.6-5.9,15.7-5.8c12.3,0.3,22.1,10.3,21.8,22.4c-0.3,12.1-10.5,21.7-22.9,21.5
							c-7.3-0.2-13.7-3.7-17.6-9.1"/>
						<g>
							
								<ellipse transform="matrix(0.7157 -0.6984 0.6984 0.7157 -3.1834 120.4671)" class="st3" cx="146.4" cy="64.1" rx="2.1" ry="2.1"/>
						</g>
					</g>
					<g>
						<path class="st13" d="M134.1,92.1c-1.7-3.8-2.6-8-2.5-12.4c0.4-16,13.9-28.7,30.2-28.4c16.3,0.3,29.2,13.6,28.8,29.6
							c-0.3,10.8-6.5,20-15.4,24.9"/>
						<g>
							
								<ellipse transform="matrix(0.9085 -0.4179 0.4179 0.9085 -26.1855 64.4792)" class="st3" cx="134.1" cy="92" rx="2.1" ry="2.1"/>
						</g>
					</g>
					<g>
						<path class="st13" d="M141.7,42.9c6.2-3.2,13.2-4.9,20.7-4.7c23.7,0.5,42.4,19.8,41.9,43.1c-0.6,23.3-20.2,41.7-43.9,41.2
							c-18.7-0.4-34.4-12.5-39.8-29.1"/>
						<g>
							
								<ellipse transform="matrix(0.8845 -0.4665 0.4665 0.8845 -3.6265 71.1164)" class="st3" cx="141.8" cy="42.9" rx="2.1" ry="2.1"/>
						</g>
					</g>
					<g>
						<path class="st13" d="M205.8,101.8c-8.4,16.5-25.9,27.6-45.9,27.2c-27.6-0.6-49.4-23-48.8-50.2c0.7-27.1,23.6-48.6,51.2-48.1
							c6.9,0.1,13.4,1.7,19.3,4.3"/>
						<g>
							
								<ellipse transform="matrix(0.4504 -0.8928 0.8928 0.4504 22.1353 239.6783)" class="st3" cx="205.7" cy="101.9" rx="2.1" ry="2.1"/>
						</g>
					</g>
				</g>
			</g>
		</g>
	</g>
</g>
<g>
	<path d="M244.1,94.9l-3.4-14.1h2.9l2.1,9.7l2.6-9.7h3.4l2.5,9.8l2.2-9.8h2.9l-3.4,14.1h-3L250,84.3l-2.8,10.5H244.1z"/>
	<path d="M260.7,94.9V80.8h10.4v2.4h-7.6v3.1h7.1v2.4h-7.1v3.8h7.9v2.4H260.7z"/>
	<path d="M273.8,80.8h5.6c1.1,0,1.9,0,2.5,0.1s1,0.3,1.5,0.6c0.4,0.3,0.8,0.7,1.1,1.2s0.4,1,0.4,1.6c0,0.7-0.2,1.3-0.5,1.8
		c-0.4,0.6-0.8,1-1.4,1.2c0.9,0.2,1.5,0.7,2,1.3c0.5,0.6,0.7,1.3,0.7,2.1c0,0.6-0.1,1.3-0.4,1.9c-0.3,0.6-0.7,1.1-1.2,1.4
		c-0.5,0.4-1.2,0.6-1.9,0.7c-0.5,0.1-1.6,0.1-3.4,0.1h-4.8V80.8z M276.6,83.1v3.3h1.9c1.1,0,1.8,0,2.1,0c0.5-0.1,0.9-0.2,1.1-0.5
		c0.3-0.3,0.4-0.6,0.4-1.1c0-0.4-0.1-0.8-0.4-1.1c-0.2-0.3-0.6-0.4-1.1-0.5c-0.3,0-1.1,0-2.4,0H276.6z M276.6,88.7v3.8h2.6
		c1,0,1.7,0,1.9-0.1c0.4-0.1,0.8-0.3,1-0.6c0.3-0.3,0.4-0.7,0.4-1.2c0-0.4-0.1-0.8-0.3-1.1c-0.2-0.3-0.5-0.5-0.9-0.6
		c-0.4-0.1-1.2-0.2-2.5-0.2H276.6z"/>
	<path d="M287.7,91.1v-2.7h5.3v2.7H287.7z"/>
	<path d="M294.5,80.8h5.6c1.1,0,1.9,0,2.5,0.1s1,0.3,1.5,0.6c0.4,0.3,0.8,0.7,1.1,1.2s0.4,1,0.4,1.6c0,0.7-0.2,1.3-0.5,1.8
		c-0.4,0.6-0.8,1-1.4,1.2c0.9,0.2,1.5,0.7,2,1.3c0.5,0.6,0.7,1.3,0.7,2.1c0,0.6-0.1,1.3-0.4,1.9c-0.3,0.6-0.7,1.1-1.2,1.4
		c-0.5,0.4-1.2,0.6-1.9,0.7c-0.5,0.1-1.6,0.1-3.4,0.1h-4.8V80.8z M297.4,83.1v3.3h1.9c1.1,0,1.8,0,2.1,0c0.5-0.1,0.9-0.2,1.1-0.5
		s0.4-0.6,0.4-1.1c0-0.4-0.1-0.8-0.4-1.1c-0.2-0.3-0.6-0.4-1.1-0.5c-0.3,0-1.1,0-2.4,0H297.4z M297.4,88.7v3.8h2.6
		c1,0,1.7,0,1.9-0.1c0.4-0.1,0.8-0.3,1-0.6c0.3-0.3,0.4-0.7,0.4-1.2c0-0.4-0.1-0.8-0.3-1.1c-0.2-0.3-0.5-0.5-0.9-0.6
		c-0.4-0.1-1.2-0.2-2.5-0.2H297.4z"/>
	<path d="M321.4,94.9h-3.1l-1.2-3.2h-5.6l-1.2,3.2h-3l5.5-14.1h3L321.4,94.9z M316.2,89.3l-1.9-5.2l-1.9,5.2H316.2z"/>
	<path d="M322.2,90.3L325,90c0.2,0.9,0.5,1.6,1,2c0.5,0.4,1.2,0.7,2.1,0.7c0.9,0,1.6-0.2,2.1-0.6c0.5-0.4,0.7-0.8,0.7-1.4
		c0-0.3-0.1-0.6-0.3-0.8c-0.2-0.2-0.5-0.4-1-0.6c-0.3-0.1-1.1-0.3-2.3-0.6c-1.5-0.4-2.6-0.8-3.2-1.4c-0.9-0.8-1.3-1.7-1.3-2.8
		c0-0.7,0.2-1.4,0.6-2s1-1.1,1.8-1.4c0.8-0.3,1.7-0.5,2.8-0.5c1.8,0,3.1,0.4,4,1.2s1.4,1.8,1.4,3.1l-2.8,0.1
		c-0.1-0.7-0.4-1.2-0.8-1.6c-0.4-0.3-1-0.5-1.8-0.5c-0.8,0-1.5,0.2-1.9,0.5c-0.3,0.2-0.5,0.5-0.5,0.9c0,0.3,0.1,0.6,0.4,0.9
		c0.4,0.3,1.2,0.6,2.6,0.9c1.4,0.3,2.4,0.7,3.1,1c0.7,0.3,1.2,0.8,1.6,1.4s0.6,1.4,0.6,2.2c0,0.8-0.2,1.6-0.7,2.3
		c-0.4,0.7-1.1,1.2-1.9,1.6c-0.8,0.3-1.8,0.5-3.1,0.5c-1.8,0-3.1-0.4-4.1-1.2C323,93.1,322.4,91.9,322.2,90.3z"/>
	<path d="M336,94.9V80.8h10.4v2.4h-7.6v3.1h7.1v2.4h-7.1v3.8h7.9v2.4H336z"/>
	<path d="M349.2,80.8h5.2c1.2,0,2.1,0.1,2.7,0.3c0.8,0.2,1.5,0.7,2.1,1.3c0.6,0.6,1,1.4,1.3,2.3c0.3,0.9,0.5,2,0.5,3.3
		c0,1.2-0.1,2.2-0.4,3c-0.4,1-0.9,1.9-1.5,2.5c-0.5,0.5-1.2,0.9-2,1.1c-0.6,0.2-1.5,0.3-2.5,0.3h-5.3V80.8z M352,83.2v9.3h2.1
		c0.8,0,1.4,0,1.7-0.1c0.5-0.1,0.8-0.3,1.1-0.6c0.3-0.3,0.6-0.7,0.7-1.4c0.2-0.6,0.3-1.5,0.3-2.6c0-1.1-0.1-1.9-0.3-2.5
		c-0.2-0.6-0.5-1-0.8-1.4s-0.8-0.5-1.3-0.7c-0.4-0.1-1.2-0.1-2.3-0.1H352z"/>
	<path d="M372,94.9V83.2h-4.2v-2.4H379v2.4h-4.2v11.7H372z"/>
	<path d="M380.9,94.9V80.8h6c1.5,0,2.6,0.1,3.3,0.4s1.2,0.7,1.6,1.3c0.4,0.6,0.6,1.4,0.6,2.2c0,1.1-0.3,1.9-0.9,2.6
		s-1.5,1.1-2.8,1.3c0.6,0.4,1.1,0.8,1.5,1.2c0.4,0.4,0.9,1.2,1.6,2.3l1.7,2.7h-3.4l-2.1-3.1c-0.7-1.1-1.2-1.8-1.5-2.1
		c-0.3-0.3-0.6-0.5-0.9-0.6c-0.3-0.1-0.8-0.2-1.4-0.2h-0.6v5.9H380.9z M383.7,86.8h2.1c1.4,0,2.2-0.1,2.6-0.2
		c0.3-0.1,0.6-0.3,0.8-0.6c0.2-0.3,0.3-0.6,0.3-1.1c0-0.5-0.1-0.9-0.4-1.1c-0.3-0.3-0.6-0.5-1.1-0.6c-0.2,0-0.9,0-2.1,0h-2.2V86.8z"
		/>
	<path d="M407.7,94.9h-3.1l-1.2-3.2h-5.6l-1.2,3.2h-3l5.5-14.1h3L407.7,94.9z M402.5,89.3l-1.9-5.2l-1.9,5.2H402.5z"/>
	<path d="M409.2,94.9V80.8h2.8v14.1H409.2z"/>
	<path d="M414.7,94.9V80.8h2.8l5.8,9.4v-9.4h2.6v14.1h-2.9l-5.7-9.2v9.2H414.7z"/>
	<path d="M428.8,94.9V80.8h2.8v14.1H428.8z"/>
	<path d="M434.4,94.9V80.8h2.8l5.8,9.4v-9.4h2.6v14.1h-2.9l-5.7-9.2v9.2H434.4z"/>
	<path d="M455.1,89.7v-2.4h6.1v5.6c-0.6,0.6-1.5,1.1-2.6,1.5c-1.1,0.4-2.3,0.7-3.4,0.7c-1.5,0-2.8-0.3-3.9-0.9s-1.9-1.5-2.5-2.7
		c-0.6-1.1-0.8-2.4-0.8-3.8c0-1.5,0.3-2.8,0.9-3.9s1.5-2,2.7-2.6c0.9-0.5,2-0.7,3.4-0.7c1.7,0,3.1,0.4,4.1,1.1c1,0.7,1.6,1.7,1.9,3
		l-2.8,0.5c-0.2-0.7-0.6-1.2-1.1-1.6c-0.5-0.4-1.2-0.6-2-0.6c-1.2,0-2.2,0.4-3,1.2c-0.7,0.8-1.1,2-1.1,3.5c0,1.7,0.4,2.9,1.1,3.8
		c0.7,0.8,1.7,1.3,2.9,1.3c0.6,0,1.2-0.1,1.8-0.3s1.1-0.5,1.5-0.9v-1.8H455.1z"/>
	<path d="M478.3,89.7l2.8,0.9c-0.4,1.5-1.1,2.7-2.1,3.4c-1,0.7-2.2,1.1-3.7,1.1c-1.9,0-3.4-0.6-4.6-1.9s-1.8-3-1.8-5.2
		c0-2.3,0.6-4.2,1.8-5.5c1.2-1.3,2.8-1.9,4.8-1.9c1.7,0,3.1,0.5,4.2,1.5c0.6,0.6,1.1,1.5,1.4,2.6l-2.8,0.7c-0.2-0.7-0.5-1.3-1-1.7
		S476,83,475.3,83c-1,0-1.9,0.4-2.5,1.1c-0.6,0.7-1,2-1,3.6c0,1.8,0.3,3,1,3.8s1.5,1.1,2.5,1.1c0.8,0,1.4-0.2,1.9-0.7
		C477.7,91.5,478.1,90.7,478.3,89.7z"/>
	<path d="M483,87.9c0-1.4,0.2-2.6,0.6-3.6c0.3-0.7,0.8-1.4,1.3-1.9c0.6-0.6,1.2-1,1.8-1.3c0.9-0.4,1.9-0.6,3-0.6
		c2.1,0,3.7,0.6,5,1.9c1.2,1.3,1.9,3.1,1.9,5.4c0,2.3-0.6,4.1-1.9,5.3c-1.2,1.3-2.9,1.9-5,1.9c-2.1,0-3.8-0.6-5-1.9
		C483.6,91.9,483,90.2,483,87.9z M485.9,87.8c0,1.6,0.4,2.8,1.1,3.6c0.7,0.8,1.7,1.2,2.8,1.2c1.1,0,2.1-0.4,2.8-1.2s1.1-2,1.1-3.7
		c0-1.6-0.4-2.8-1.1-3.6S491,83,489.8,83s-2.1,0.4-2.8,1.2C486.2,85,485.9,86.2,485.9,87.8z"/>
	<path d="M498.8,80.8h2.8v7.6c0,1.2,0,2,0.1,2.4c0.1,0.6,0.4,1,0.9,1.4c0.5,0.3,1.1,0.5,1.9,0.5c0.8,0,1.4-0.2,1.8-0.5
		c0.4-0.3,0.7-0.7,0.7-1.2c0.1-0.5,0.1-1.3,0.1-2.4v-7.8h2.8v7.4c0,1.7-0.1,2.9-0.2,3.6s-0.4,1.3-0.9,1.8c-0.4,0.5-1,0.9-1.7,1.1
		c-0.7,0.3-1.6,0.4-2.7,0.4c-1.3,0-2.4-0.2-3.1-0.5c-0.7-0.3-1.2-0.7-1.6-1.2c-0.4-0.5-0.7-1-0.8-1.6c-0.2-0.8-0.3-2-0.3-3.6V80.8z"
		/>
	<path d="M513,94.9V80.8h6c1.5,0,2.6,0.1,3.3,0.4c0.7,0.3,1.2,0.7,1.6,1.3c0.4,0.6,0.6,1.4,0.6,2.2c0,1.1-0.3,1.9-0.9,2.6
		c-0.6,0.7-1.5,1.1-2.8,1.3c0.6,0.4,1.1,0.8,1.5,1.2s0.9,1.2,1.6,2.3l1.7,2.7h-3.4l-2.1-3.1c-0.7-1.1-1.2-1.8-1.5-2.1
		s-0.6-0.5-0.9-0.6s-0.8-0.2-1.4-0.2h-0.6v5.9H513z M515.9,86.8h2.1c1.4,0,2.2-0.1,2.6-0.2c0.3-0.1,0.6-0.3,0.8-0.6
		c0.2-0.3,0.3-0.6,0.3-1.1c0-0.5-0.1-0.9-0.4-1.1c-0.3-0.3-0.6-0.5-1.1-0.6c-0.2,0-0.9,0-2.1,0h-2.2V86.8z"/>
	<path d="M526.5,90.3l2.8-0.3c0.2,0.9,0.5,1.6,1,2c0.5,0.4,1.2,0.7,2.1,0.7c0.9,0,1.6-0.2,2.1-0.6c0.5-0.4,0.7-0.8,0.7-1.4
		c0-0.3-0.1-0.6-0.3-0.8c-0.2-0.2-0.5-0.4-1-0.6c-0.3-0.1-1.1-0.3-2.3-0.6c-1.5-0.4-2.6-0.8-3.2-1.4c-0.9-0.8-1.3-1.7-1.3-2.8
		c0-0.7,0.2-1.4,0.6-2s1-1.1,1.8-1.4s1.7-0.5,2.8-0.5c1.8,0,3.1,0.4,4,1.2s1.4,1.8,1.4,3.1l-2.8,0.1c-0.1-0.7-0.4-1.2-0.8-1.6
		c-0.4-0.3-1-0.5-1.8-0.5c-0.8,0-1.5,0.2-1.9,0.5c-0.3,0.2-0.5,0.5-0.5,0.9c0,0.3,0.1,0.6,0.4,0.9c0.4,0.3,1.2,0.6,2.6,0.9
		c1.4,0.3,2.4,0.7,3.1,1c0.7,0.3,1.2,0.8,1.6,1.4s0.6,1.4,0.6,2.2c0,0.8-0.2,1.6-0.7,2.3c-0.4,0.7-1.1,1.2-1.9,1.6
		c-0.8,0.3-1.8,0.5-3.1,0.5c-1.8,0-3.1-0.4-4.1-1.2C527.3,93.1,526.7,91.9,526.5,90.3z"/>
	<path d="M540.3,94.9V80.8h10.4v2.4h-7.6v3.1h7.1v2.4h-7.1v3.8h7.9v2.4H540.3z"/>
</g>
<g>
	<g>
		<g>
			<path class="st14" d="M279.6,71.6V48.4c0-4.2-2-8.9-7.7-8.9c-4.7,0-7,2.5-7.5,4c0.4,1.6,0.6,3.3,0.6,4.9v23.2h-4.9V48.4
				c0-4.3-2.2-8.9-7.7-8.9c-5,0-6.9,3.3-6.9,3.3v28.8h-4.9V41.6c0,0,2.8-6.9,11.9-6.9c4.3,0,7.5,1.8,9.5,4.1c1.7-1.9,4.9-4.1,10-4.1
				c9.1,0,12.6,7.1,12.6,13.7v23.2H279.6z"/>
			<path class="st14" d="M292.7,19.5h4.9v52.1h-4.9V19.5z"/>
			<path class="st14" d="M327.9,71.6V48.4c0-4.2-3.3-8.9-8.9-8.9c-4.5,0-8.3,3.4-8.3,3.4v28.7h-4.9v-30c0,0,4.3-6.8,13.2-6.8
				c9.1,0,13.9,7.1,13.9,13.7v23.2H327.9z"/>
		</g>
	</g>
</g>
</svg>
