<?xml version="1.0" encoding="utf-8"?>
<!-- Generator: Adobe Illustrator 21.0.2, SVG Export Plug-In . SVG Version: 6.00 Build 0)  -->
<!DOCTYPE svg PUBLIC "-//W3C//DTD SVG 1.1//EN" "http://www.w3.org/Graphics/SVG/1.1/DTD/svg11.dtd">
<svg version="1.1" id="Layer_1" xmlns="http://www.w3.org/2000/svg" xmlns:xlink="http://www.w3.org/1999/xlink" x="0px" y="0px"
	 viewBox="0 0 250 75" style="enable-background:new 0 0 250 75;" xml:space="preserve">
<style type="text/css">
	.st0{clip-path:url(#SVGID_2_);}
	.st1{clip-path:url(#SVGID_39_);}
	.st2{clip-path:url(#SVGID_40_);}
	.st3{clip-path:url(#SVGID_41_);}
	.st4{clip-path:url(#SVGID_42_);}
	.st5{clip-path:url(#SVGID_43_);}
	.st6{clip-path:url(#SVGID_44_);}
	.st7{clip-path:url(#SVGID_45_);}
	.st8{clip-path:url(#SVGID_46_);}
	.st9{clip-path:url(#SVGID_47_);}
	.st10{clip-path:url(#SVGID_48_);}
	.st11{clip-path:url(#SVGID_49_);}
	.st12{clip-path:url(#SVGID_50_);}
	.st13{clip-path:url(#SVGID_51_);}
	.st14{clip-path:url(#SVGID_52_);}
	.st15{clip-path:url(#SVGID_53_);}
	.st16{clip-path:url(#SVGID_54_);}
	.st17{clip-path:url(#SVGID_55_);}
	.st18{clip-path:url(#SVGID_56_);}
	.st19{clip-path:url(#SVGID_57_);}
	.st20{clip-path:url(#SVGID_58_);}
	.st21{clip-path:url(#SVGID_59_);}
	.st22{clip-path:url(#SVGID_60_);}
	.st23{clip-path:url(#SVGID_61_);}
	.st24{clip-path:url(#SVGID_62_);}
	.st25{clip-path:url(#SVGID_63_);}
	.st26{clip-path:url(#SVGID_64_);}
	.st27{clip-path:url(#SVGID_65_);}
	.st28{clip-path:url(#SVGID_66_);}
	.st29{clip-path:url(#SVGID_67_);}
	.st30{clip-path:url(#SVGID_68_);}
	.st31{clip-path:url(#SVGID_69_);}
	.st32{clip-path:url(#SVGID_70_);}
	.st33{clip-path:url(#SVGID_71_);}
	.st34{clip-path:url(#SVGID_72_);}
	.st35{clip-path:url(#SVGID_73_);}
	.st36{clip-path:url(#SVGID_74_);fill:none;stroke:#00529B;stroke-width:0.2757;}
	.st37{clip-path:url(#SVGID_74_);fill:#00529B;}
	.st38{clip-path:url(#SVGID_76_);}
	.st39{clip-path:url(#SVGID_117_);}
	.st40{clip-path:url(#SVGID_118_);}
	.st41{clip-path:url(#SVGID_119_);}
	.st42{clip-path:url(#SVGID_120_);}
	.st43{clip-path:url(#SVGID_121_);}
	.st44{clip-path:url(#SVGID_122_);}
	.st45{clip-path:url(#SVGID_123_);}
	.st46{clip-path:url(#SVGID_124_);}
	.st47{clip-path:url(#SVGID_125_);}
	.st48{clip-path:url(#SVGID_126_);}
	.st49{clip-path:url(#SVGID_127_);}
	.st50{clip-path:url(#SVGID_128_);}
	.st51{clip-path:url(#SVGID_129_);}
	.st52{clip-path:url(#SVGID_130_);}
	.st53{clip-path:url(#SVGID_131_);}
	.st54{clip-path:url(#SVGID_132_);}
	.st55{clip-path:url(#SVGID_133_);}
	.st56{clip-path:url(#SVGID_134_);}
	.st57{clip-path:url(#SVGID_135_);}
	.st58{clip-path:url(#SVGID_136_);}
	.st59{clip-path:url(#SVGID_137_);}
	.st60{clip-path:url(#SVGID_138_);}
	.st61{clip-path:url(#SVGID_139_);}
	.st62{clip-path:url(#SVGID_140_);}
	.st63{clip-path:url(#SVGID_141_);}
	.st64{clip-path:url(#SVGID_142_);}
	.st65{clip-path:url(#SVGID_143_);}
	.st66{clip-path:url(#SVGID_144_);}
	.st67{clip-path:url(#SVGID_145_);}
	.st68{clip-path:url(#SVGID_146_);}
	.st69{clip-path:url(#SVGID_147_);}
	.st70{clip-path:url(#SVGID_148_);}
	.st71{clip-path:url(#SVGID_149_);}
	.st72{clip-path:url(#SVGID_150_);}
	.st73{clip-path:url(#SVGID_151_);}
	.st74{clip-path:url(#SVGID_152_);}
	.st75{clip-path:url(#SVGID_153_);}
	.st76{clip-path:url(#SVGID_154_);}
	.st77{clip-path:url(#SVGID_155_);}
	.st78{clip-path:url(#SVGID_156_);fill:#00529B;}
	.st79{clip-path:url(#SVGID_156_);fill:#13487D;}
</style>
<g>
	<g>
		<g>
			<g>
				<g>
					<defs>
						<rect id="SVGID_1_" x="153.5" y="13.8" width="82.7" height="51.9"/>
					</defs>
					<clipPath id="SVGID_2_">
						<use xlink:href="#SVGID_1_"  style="overflow:visible;"/>
					</clipPath>
					<g class="st0">
						<g>
							<defs>
								<rect id="SVGID_3_" x="153.5" y="13.8" width="82.7" height="51.9"/>
							</defs>
							<defs>
								<rect id="SVGID_4_" x="153.5" y="13.8" width="82.7" height="51.9"/>
							</defs>
							<defs>
								<rect id="SVGID_5_" x="153.5" y="13.8" width="82.7" height="51.9"/>
							</defs>
							<defs>
								<rect id="SVGID_6_" x="153.5" y="13.8" width="82.7" height="51.9"/>
							</defs>
							<defs>
								<rect id="SVGID_7_" x="153.5" y="13.8" width="82.7" height="51.9"/>
							</defs>
							<defs>
								<rect id="SVGID_8_" x="153.5" y="13.8" width="82.7" height="51.9"/>
							</defs>
							<defs>
								<rect id="SVGID_9_" x="153.5" y="13.8" width="82.7" height="51.9"/>
							</defs>
							<defs>
								<rect id="SVGID_10_" x="153.5" y="13.8" width="82.7" height="51.9"/>
							</defs>
							<defs>
								<rect id="SVGID_11_" x="153.5" y="13.8" width="82.7" height="51.9"/>
							</defs>
							<defs>
								<rect id="SVGID_12_" x="153.5" y="13.8" width="82.7" height="51.9"/>
							</defs>
							<defs>
								<rect id="SVGID_13_" x="153.5" y="13.8" width="82.7" height="51.9"/>
							</defs>
							<defs>
								<rect id="SVGID_14_" x="153.5" y="13.8" width="82.7" height="51.9"/>
							</defs>
							<defs>
								<rect id="SVGID_15_" x="153.5" y="13.8" width="82.7" height="51.9"/>
							</defs>
							<defs>
								<rect id="SVGID_16_" x="153.5" y="13.8" width="82.7" height="51.9"/>
							</defs>
							<defs>
								<rect id="SVGID_17_" x="153.5" y="13.8" width="82.7" height="51.9"/>
							</defs>
							<defs>
								<rect id="SVGID_18_" x="153.5" y="13.8" width="82.7" height="51.9"/>
							</defs>
							<defs>
								<rect id="SVGID_19_" x="153.5" y="13.8" width="82.7" height="51.9"/>
							</defs>
							<defs>
								<rect id="SVGID_20_" x="153.5" y="13.8" width="82.7" height="51.9"/>
							</defs>
							<defs>
								<rect id="SVGID_21_" x="153.5" y="13.8" width="82.7" height="51.9"/>
							</defs>
							<defs>
								<rect id="SVGID_22_" x="153.5" y="13.8" width="82.7" height="51.9"/>
							</defs>
							<defs>
								<rect id="SVGID_23_" x="153.5" y="13.8" width="82.7" height="51.9"/>
							</defs>
							<defs>
								<rect id="SVGID_24_" x="153.5" y="13.8" width="82.7" height="51.9"/>
							</defs>
							<defs>
								<rect id="SVGID_25_" x="153.5" y="13.8" width="82.7" height="51.9"/>
							</defs>
							<defs>
								<rect id="SVGID_26_" x="153.5" y="13.8" width="82.7" height="51.9"/>
							</defs>
							<defs>
								<rect id="SVGID_27_" x="153.5" y="13.8" width="82.7" height="51.9"/>
							</defs>
							<defs>
								<rect id="SVGID_28_" x="153.5" y="13.8" width="82.7" height="51.9"/>
							</defs>
							<defs>
								<rect id="SVGID_29_" x="153.5" y="13.8" width="82.7" height="51.9"/>
							</defs>
							<defs>
								<rect id="SVGID_30_" x="153.5" y="13.8" width="82.7" height="51.9"/>
							</defs>
							<defs>
								<rect id="SVGID_31_" x="153.5" y="13.8" width="82.7" height="51.9"/>
							</defs>
							<defs>
								<rect id="SVGID_32_" x="153.5" y="13.8" width="82.7" height="51.9"/>
							</defs>
							<defs>
								<rect id="SVGID_33_" x="153.5" y="13.8" width="82.7" height="51.9"/>
							</defs>
							<defs>
								<rect id="SVGID_34_" x="153.5" y="13.8" width="82.7" height="51.9"/>
							</defs>
							<defs>
								<rect id="SVGID_35_" x="153.5" y="13.8" width="82.7" height="51.9"/>
							</defs>
							<defs>
								<rect id="SVGID_36_" x="153.5" y="13.8" width="82.7" height="51.9"/>
							</defs>
							<defs>
								<rect id="SVGID_37_" x="153.5" y="13.8" width="82.7" height="51.9"/>
							</defs>
							<defs>
								<rect id="SVGID_38_" x="153.5" y="13.8" width="82.7" height="51.9"/>
							</defs>
							<clipPath id="SVGID_39_">
								<use xlink:href="#SVGID_3_"  style="overflow:visible;"/>
							</clipPath>
							<clipPath id="SVGID_40_" class="st1">
								<use xlink:href="#SVGID_4_"  style="overflow:visible;"/>
							</clipPath>
							<clipPath id="SVGID_41_" class="st2">
								<use xlink:href="#SVGID_5_"  style="overflow:visible;"/>
							</clipPath>
							<clipPath id="SVGID_42_" class="st3">
								<use xlink:href="#SVGID_6_"  style="overflow:visible;"/>
							</clipPath>
							<clipPath id="SVGID_43_" class="st4">
								<use xlink:href="#SVGID_7_"  style="overflow:visible;"/>
							</clipPath>
							<clipPath id="SVGID_44_" class="st5">
								<use xlink:href="#SVGID_8_"  style="overflow:visible;"/>
							</clipPath>
							<clipPath id="SVGID_45_" class="st6">
								<use xlink:href="#SVGID_9_"  style="overflow:visible;"/>
							</clipPath>
							<clipPath id="SVGID_46_" class="st7">
								<use xlink:href="#SVGID_10_"  style="overflow:visible;"/>
							</clipPath>
							<clipPath id="SVGID_47_" class="st8">
								<use xlink:href="#SVGID_11_"  style="overflow:visible;"/>
							</clipPath>
							<clipPath id="SVGID_48_" class="st9">
								<use xlink:href="#SVGID_12_"  style="overflow:visible;"/>
							</clipPath>
							<clipPath id="SVGID_49_" class="st10">
								<use xlink:href="#SVGID_13_"  style="overflow:visible;"/>
							</clipPath>
							<clipPath id="SVGID_50_" class="st11">
								<use xlink:href="#SVGID_14_"  style="overflow:visible;"/>
							</clipPath>
							<clipPath id="SVGID_51_" class="st12">
								<use xlink:href="#SVGID_15_"  style="overflow:visible;"/>
							</clipPath>
							<clipPath id="SVGID_52_" class="st13">
								<use xlink:href="#SVGID_16_"  style="overflow:visible;"/>
							</clipPath>
							<clipPath id="SVGID_53_" class="st14">
								<use xlink:href="#SVGID_17_"  style="overflow:visible;"/>
							</clipPath>
							<clipPath id="SVGID_54_" class="st15">
								<use xlink:href="#SVGID_18_"  style="overflow:visible;"/>
							</clipPath>
							<clipPath id="SVGID_55_" class="st16">
								<use xlink:href="#SVGID_19_"  style="overflow:visible;"/>
							</clipPath>
							<clipPath id="SVGID_56_" class="st17">
								<use xlink:href="#SVGID_20_"  style="overflow:visible;"/>
							</clipPath>
							<clipPath id="SVGID_57_" class="st18">
								<use xlink:href="#SVGID_21_"  style="overflow:visible;"/>
							</clipPath>
							<clipPath id="SVGID_58_" class="st19">
								<use xlink:href="#SVGID_22_"  style="overflow:visible;"/>
							</clipPath>
							<clipPath id="SVGID_59_" class="st20">
								<use xlink:href="#SVGID_23_"  style="overflow:visible;"/>
							</clipPath>
							<clipPath id="SVGID_60_" class="st21">
								<use xlink:href="#SVGID_24_"  style="overflow:visible;"/>
							</clipPath>
							<clipPath id="SVGID_61_" class="st22">
								<use xlink:href="#SVGID_25_"  style="overflow:visible;"/>
							</clipPath>
							<clipPath id="SVGID_62_" class="st23">
								<use xlink:href="#SVGID_26_"  style="overflow:visible;"/>
							</clipPath>
							<clipPath id="SVGID_63_" class="st24">
								<use xlink:href="#SVGID_27_"  style="overflow:visible;"/>
							</clipPath>
							<clipPath id="SVGID_64_" class="st25">
								<use xlink:href="#SVGID_28_"  style="overflow:visible;"/>
							</clipPath>
							<clipPath id="SVGID_65_" class="st26">
								<use xlink:href="#SVGID_29_"  style="overflow:visible;"/>
							</clipPath>
							<clipPath id="SVGID_66_" class="st27">
								<use xlink:href="#SVGID_30_"  style="overflow:visible;"/>
							</clipPath>
							<clipPath id="SVGID_67_" class="st28">
								<use xlink:href="#SVGID_31_"  style="overflow:visible;"/>
							</clipPath>
							<clipPath id="SVGID_68_" class="st29">
								<use xlink:href="#SVGID_32_"  style="overflow:visible;"/>
							</clipPath>
							<clipPath id="SVGID_69_" class="st30">
								<use xlink:href="#SVGID_33_"  style="overflow:visible;"/>
							</clipPath>
							<clipPath id="SVGID_70_" class="st31">
								<use xlink:href="#SVGID_34_"  style="overflow:visible;"/>
							</clipPath>
							<clipPath id="SVGID_71_" class="st32">
								<use xlink:href="#SVGID_35_"  style="overflow:visible;"/>
							</clipPath>
							<clipPath id="SVGID_72_" class="st33">
								<use xlink:href="#SVGID_36_"  style="overflow:visible;"/>
							</clipPath>
							<clipPath id="SVGID_73_" class="st34">
								<use xlink:href="#SVGID_37_"  style="overflow:visible;"/>
							</clipPath>
							<clipPath id="SVGID_74_" class="st35">
								<use xlink:href="#SVGID_38_"  style="overflow:visible;"/>
							</clipPath>
							<path class="st36" d="M233.4,51.8c-4.8,8.8-14.6,14.5-25.4,13.6c-14.4-1.2-25-13.7-23.8-27.8c1.3-14.1,13.9-24.6,28.3-23.3
								c3.3,0.3,6.5,1.2,9.3,2.6"/>
							<path class="st37" d="M221.5,17.4c0.4,0.2,0.8,0,1-0.4s0-0.8-0.4-1s-0.8,0-1,0.4C221,16.8,221.2,17.3,221.5,17.4"/>
							<path class="st36" d="M200.5,20.3c3.6-1.7,7.6-2.6,11.9-2.2c12.3,1.1,21.5,11.7,20.4,23.9c-1.1,12.1-12,21.1-24.3,20
								c-9.5-0.8-17.1-7.4-19.6-15.9"/>
							<path class="st37" d="M189.6,46c-0.1-0.4-0.5-0.6-0.9-0.5s-0.6,0.5-0.5,0.9s0.5,0.6,0.9,0.5C189.5,46.7,189.7,46.3,189.6,46"
								/>
							<path class="st36" d="M196.2,46.2c-1-2.3-1.5-4.9-1.3-7.5c0.7-8.3,8.2-14.5,16.7-13.8s14.8,8.1,14,16.4
								c-0.5,5.4-3.7,9.8-8.3,12.1"/>
							<path class="st37" d="M217,52.8c-0.4,0.2-0.5,0.6-0.3,1s0.6,0.5,1,0.3s0.5-0.6,0.3-1C217.8,52.7,217.4,52.6,217,52.8"/>
							<path class="st36" d="M202.3,31.8c2.3-2.2,5.6-3.5,9.1-3.2c6.4,0.6,11.2,6.1,10.6,12.4c-0.6,6.3-6.2,11-12.7,10.4
								c-3.5-0.3-6.6-2.1-8.5-4.8"/>
							<path class="st37" d="M201.5,46.3c-0.2-0.3-0.7-0.4-1-0.2s-0.4,0.7-0.2,1s0.7,0.4,1,0.2C201.7,47.1,201.8,46.6,201.5,46.3"/>
							<path class="st36" d="M217.3,45c-1.7,2.3-4.6,3.8-7.8,3.5c-4.8-0.4-8.3-4.5-7.9-9.2c0.3-3.8,3.1-6.7,6.6-7.5"/>
							<path class="st37" d="M208.4,32.5c0.4-0.1,0.7-0.5,0.6-0.8c-0.1-0.4-0.5-0.7-0.8-0.6c-0.4,0.1-0.7,0.5-0.6,0.8
								C207.6,32.3,208,32.5,208.4,32.5"/>
							<path class="st36" d="M228.9,41.8c-0.9,10.1-10,17.6-20.2,16.7c-10.3-0.9-17.9-9.8-17-19.9c0.7-8.1,6.7-14.5,14.3-16.3"/>
							<path class="st37" d="M206.1,23c0.4-0.1,0.6-0.5,0.5-0.9s-0.5-0.6-0.9-0.5s-0.6,0.5-0.5,0.9S205.7,23.1,206.1,23"/>
							<path class="st37" d="M164.7,31.5h-2.6v-8.8c0-0.2-0.1-0.3-0.2-0.5c-0.1-0.1-0.3-0.2-0.5-0.2h-0.8v9.5H158v-8.8
								c0-0.2-0.1-0.3-0.2-0.5c-0.1-0.1-0.3-0.2-0.5-0.2h-0.8v9.5h-2.6V20.8h2.1l0.3,0.5c0.2-0.1,0.5-0.3,0.9-0.3
								c0.4-0.1,0.8-0.1,1.2-0.1c0.5,0,0.8,0,1.2,0.1c0.3,0.1,0.6,0.2,0.7,0.4c0.2-0.2,0.5-0.3,0.9-0.4c0.4-0.1,0.7-0.1,1.1-0.1
								c0.8,0,1.4,0.2,1.9,0.5c0.5,0.4,0.7,0.9,0.7,1.5v8.6H164.7z"/>
							<path class="st37" d="M172.2,27.5h-3.6c0,1.2,0.1,2,0.2,2.3c0.1,0.3,0.4,0.5,0.7,0.5c0.2,0,0.4-0.1,0.5-0.2
								c0.1-0.1,0.2-0.3,0.2-0.7h1.7c0,0.7-0.2,1.3-0.7,1.6c-0.4,0.3-1.1,0.5-2.1,0.5s-1.8-0.4-2.3-1.1c-0.5-0.7-0.8-1.7-0.8-3.1
								c0-1.4,0.3-2.4,0.8-3.1c0.6-0.7,1.4-1.1,2.5-1.1c1,0,1.7,0.3,2.1,0.8c0.5,0.6,0.7,1.4,0.7,2.5v1.1H172.2z M170.2,26.3
								c0-0.7,0-1.2-0.1-1.5s-0.3-0.4-0.6-0.4s-0.5,0.1-0.6,0.3s-0.1,0.7-0.1,1.5L170.2,26.3L170.2,26.3z"/>
							<path class="st37" d="M179.7,31.5h-2l-0.2-0.3c-0.3,0.2-0.5,0.3-0.7,0.3s-0.5,0.1-0.9,0.1c-0.7,0-1.3-0.2-1.7-0.6
								c-0.4-0.4-0.7-0.9-0.8-1.6c0-0.3-0.1-0.7-0.1-1.1c0-0.4,0-0.8,0-1.2s0-0.9,0.1-1.3c0.1-0.4,0.1-0.8,0.2-1
								c0.2-0.5,0.5-1,0.9-1.3s0.9-0.5,1.5-0.5c0.4,0,0.6,0,0.8,0.1c0.2,0,0.4,0.1,0.6,0.2v-2.7h2.5v10.9H179.7z M177.3,30.2v-5.6
								c-0.1,0-0.2-0.1-0.3-0.1s-0.2,0-0.3,0c-0.3,0-0.5,0.1-0.6,0.2c-0.1,0.1-0.2,0.3-0.2,0.6s-0.1,0.7-0.1,1.1c0,0.4,0,0.7,0,0.8
								c0,0.5,0,0.9,0,1.4s0,0.8,0.1,1.1c0,0.3,0.1,0.4,0.2,0.5c0.1,0.1,0.3,0.2,0.5,0.2s0.3,0,0.4,0
								C177.1,30.3,177.2,30.3,177.3,30.2"/>
							<path class="st37" d="M183.6,22.7h-2.5v-1.9h2.5V22.7z M183.6,31.5h-2.5v-8.2h2.5V31.5z"/>
							<path class="st37" d="M190.9,25.6h-2.2c0-0.5,0-0.8-0.1-1c-0.1-0.1-0.2-0.2-0.4-0.2c-0.3,0-0.6,0.2-0.7,0.6
								c-0.1,0.4-0.1,1.2-0.1,2.3c0,1.3,0.1,2.1,0.2,2.4c0.1,0.3,0.3,0.5,0.7,0.5c0.2,0,0.4-0.1,0.5-0.2c0.1-0.1,0.2-0.3,0.2-0.7
								h1.8c0,0.7-0.2,1.3-0.7,1.6s-1.1,0.5-2.1,0.5s-1.8-0.4-2.3-1.1c-0.5-0.7-0.8-1.7-0.8-3.1c0-1.4,0.3-2.4,0.8-3.1
								c0.6-0.7,1.4-1.1,2.5-1.1c0.9,0,1.6,0.2,2,0.6C190.6,24.2,190.9,24.8,190.9,25.6"/>
							<path class="st37" d="M198,31.5h-2l-0.2-0.3c-0.2,0.1-0.4,0.2-0.7,0.3s-0.6,0.1-1.1,0.1c-0.8,0-1.4-0.3-1.9-0.8
								s-0.7-1.3-0.7-2.2c0-1,0.2-1.8,0.7-2.3s1.2-0.7,2.2-0.7c0.3,0,0.6,0,0.8,0.1s0.4,0.2,0.5,0.3v-0.6c0-0.3-0.1-0.5-0.3-0.7
								s-0.5-0.3-0.8-0.3c-0.4,0-0.8,0-1.1,0.1s-0.6,0.2-1,0.3v-1.2c0.4-0.2,0.8-0.3,1.3-0.3c0.5-0.1,0.9-0.1,1.4-0.1
								c0.9,0,1.6,0.2,2.1,0.6c0.5,0.4,0.8,1,0.8,1.7V31.5z M195.6,30.2v-3c-0.1-0.1-0.1-0.3-0.3-0.3c-0.1-0.1-0.3-0.1-0.5-0.1
								c-0.3,0-0.6,0.1-0.7,0.4c-0.1,0.3-0.2,0.8-0.2,1.4c0,0.8,0.1,1.3,0.2,1.5c0.1,0.2,0.3,0.3,0.7,0.3c0.2,0,0.3,0,0.5-0.1
								C195.4,30.3,195.5,30.2,195.6,30.2"/>
							<path class="st37" d="M204.1,25.1c-0.2-0.1-0.4-0.1-0.6-0.2c-0.2,0-0.4-0.1-0.6-0.1c-0.2,0-0.5,0-0.7,0s-0.4,0.1-0.5,0.1v6.4
								h-2.5v-8.2h2l0.1,0.4c0.2-0.2,0.5-0.3,0.8-0.4c0.3-0.1,0.6-0.1,1-0.1c0.2,0,0.3,0,0.4,0c0.1,0,0.3,0.1,0.4,0.1v2H204.1z"/>
							<path class="st37" d="M210.8,27.5h-3.6c0,1.2,0.1,2,0.2,2.3c0.1,0.3,0.4,0.5,0.7,0.5c0.2,0,0.4-0.1,0.5-0.2
								c0.1-0.1,0.2-0.3,0.2-0.7h1.7c0,0.7-0.2,1.3-0.7,1.6c-0.4,0.3-1.1,0.5-2.1,0.5s-1.8-0.4-2.3-1.1c-0.5-0.7-0.8-1.7-0.8-3.1
								c0-1.4,0.3-2.4,0.8-3.1c0.6-0.7,1.4-1.1,2.5-1.1c1,0,1.7,0.3,2.1,0.8c0.5,0.6,0.7,1.4,0.7,2.5v1.1H210.8z M208.7,26.3
								c0-0.7,0-1.2-0.1-1.5s-0.3-0.4-0.6-0.4s-0.5,0.1-0.6,0.3s-0.1,0.7-0.1,1.5L208.7,26.3L208.7,26.3z"/>
							<path class="st37" d="M171.1,43.9h-3.3c-1,0-1.8-0.2-2.3-0.7c-0.5-0.4-0.8-1.1-0.8-1.9v-8.1h2.6v8c0,0.6,0.1,1,0.4,1.2
								c0.3,0.2,0.6,0.3,1.1,0.3h2.3V43.9z"/>
							<path class="st37" d="M177.7,39.9h-3.6c0,1.2,0.1,2,0.2,2.3c0.1,0.3,0.4,0.5,0.7,0.5c0.2,0,0.4-0.1,0.5-0.2
								c0.1-0.1,0.2-0.4,0.2-0.7h1.7c0,0.7-0.2,1.3-0.7,1.6c-0.4,0.3-1.1,0.5-2.1,0.5s-1.8-0.4-2.3-1.1c-0.5-0.7-0.8-1.7-0.8-3.1
								c0-1.4,0.3-2.4,0.8-3.1c0.6-0.7,1.4-1.1,2.5-1.1c1,0,1.7,0.3,2.1,0.8c0.5,0.6,0.7,1.4,0.7,2.5v1.1H177.7z M175.7,38.7
								c0-0.7,0-1.2-0.1-1.5s-0.3-0.4-0.6-0.4s-0.5,0.1-0.6,0.3s-0.1,0.7-0.1,1.5L175.7,38.7L175.7,38.7z"/>
							<path class="st37" d="M185.1,43.9h-2l-0.2-0.3c-0.2,0.1-0.4,0.2-0.7,0.3s-0.6,0.1-1.1,0.1c-0.8,0-1.4-0.3-1.9-0.8
								s-0.7-1.3-0.7-2.2c0-1,0.2-1.8,0.7-2.3s1.2-0.7,2.2-0.7c0.3,0,0.6,0,0.8,0.1s0.4,0.2,0.5,0.3v-0.6c0-0.3-0.1-0.5-0.3-0.7
								s-0.5-0.3-0.8-0.3c-0.4,0-0.8,0-1.1,0.1s-0.6,0.2-1,0.3V36c0.4-0.2,0.8-0.3,1.3-0.3c0.5-0.1,0.9-0.1,1.4-0.1
								c0.9,0,1.6,0.2,2.1,0.6c0.5,0.4,0.8,1,0.8,1.7V43.9z M182.7,42.6v-3c-0.1-0.1-0.1-0.3-0.3-0.3c-0.1-0.1-0.3-0.1-0.5-0.1
								c-0.3,0-0.6,0.1-0.7,0.4c-0.2,0.3-0.2,0.8-0.2,1.4c0,0.8,0.1,1.3,0.2,1.5c0.1,0.2,0.3,0.3,0.7,0.3c0.2,0,0.3,0,0.5-0.1
								C182.5,42.7,182.6,42.6,182.7,42.6"/>
							<path class="st37" d="M191.2,37.5c-0.2-0.1-0.4-0.1-0.6-0.2c-0.2,0-0.4-0.1-0.6-0.1c-0.2,0-0.5,0-0.7,0s-0.4,0.1-0.5,0.1v6.4
								h-2.5v-8.2h2l0.1,0.4c0.2-0.2,0.5-0.3,0.8-0.4c0.3-0.1,0.6-0.1,1-0.1c0.2,0,0.3,0,0.4,0c0.1,0,0.3,0.1,0.4,0.1v2H191.2z"/>
							<path class="st37" d="M198.5,43.9H196v-6.2c0-0.2-0.1-0.4-0.2-0.5c-0.2-0.1-0.4-0.2-0.6-0.2c-0.1,0-0.2,0-0.4,0
								c-0.1,0-0.3,0-0.4,0.1v6.8h-2.5v-8.2h2l0.1,0.4c0.3-0.2,0.7-0.3,1-0.4c0.3-0.1,0.6-0.1,1-0.1c0.7,0,1.3,0.2,1.7,0.5
								s0.6,0.8,0.6,1.5v6.3H198.5z"/>
							<path class="st37" d="M202.4,35.1h-2.5v-1.9h2.5V35.1z M202.4,43.9h-2.5v-8.2h2.5V43.9z"/>
							<path class="st37" d="M210.3,43.9h-2.5v-6.2c0-0.2-0.1-0.4-0.2-0.5c-0.2-0.1-0.4-0.2-0.6-0.2c-0.1,0-0.2,0-0.4,0
								c-0.1,0-0.3,0-0.4,0.1v6.8h-2.5v-8.2h2l0.1,0.4c0.3-0.2,0.7-0.3,1-0.4c0.3-0.1,0.6-0.1,1-0.1c0.7,0,1.3,0.2,1.7,0.5
								s0.6,0.8,0.6,1.5v6.3H210.3z"/>
							<path class="st37" d="M218,43.6c0,0.8-0.3,1.4-0.9,1.9c-0.6,0.4-1.5,0.7-2.5,0.7c-0.4,0-0.9,0-1.3-0.1
								c-0.4-0.1-0.9-0.2-1.2-0.3l0.3-1.1c0.2,0.1,0.6,0.2,1,0.2c0.4,0.1,0.7,0.1,1.1,0.1c0.5,0,0.8-0.1,1.1-0.3
								c0.2-0.2,0.3-0.5,0.3-1c0-0.1,0-0.1,0-0.2c0-0.1,0-0.1,0-0.2c-0.1,0.1-0.3,0.3-0.6,0.3c-0.3,0.1-0.7,0.1-1.1,0.1
								c-0.7,0-1.2-0.2-1.6-0.5c-0.4-0.3-0.6-0.9-0.8-1.6c-0.1-0.3-0.1-0.6-0.1-0.9s0-0.7,0-1.1c0-0.4,0-0.9,0.1-1.3
								c0.1-0.4,0.1-0.8,0.2-1c0.2-0.5,0.5-1,0.9-1.3s0.9-0.5,1.5-0.5c0.3,0,0.5,0,0.8,0.1c0.2,0,0.4,0.1,0.7,0.2v-0.2h2.5v8H218z
								 M215.5,42.4V37c-0.1,0-0.2-0.1-0.3-0.1s-0.2,0-0.3,0c-0.3,0-0.5,0.1-0.6,0.2c-0.1,0.1-0.2,0.3-0.2,0.6s-0.1,0.7-0.1,1
								c0,0.4,0,0.7,0,1c0,0.4,0,0.9,0,1.2s0,0.7,0.1,1c0,0.2,0.1,0.4,0.2,0.5c0.1,0.1,0.3,0.2,0.5,0.2s0.3,0,0.4,0
								C215.3,42.5,215.4,42.5,215.5,42.4"/>
							<path class="st37" d="M164.4,56.3h-2.6v-8.4c0-0.3-0.1-0.6-0.3-0.7c-0.2-0.2-0.5-0.2-1-0.2H160v9.4h-2.6V45.7h2.1l0.3,0.5
								c0.2-0.2,0.5-0.3,0.9-0.4c0.3-0.1,0.7-0.1,1.1-0.1c0.8,0,1.5,0.2,1.9,0.6c0.5,0.4,0.7,0.9,0.7,1.6L164.4,56.3L164.4,56.3z"/>
							<path class="st37" d="M171.7,52.3h-3.6c0,1.2,0.1,2,0.2,2.3c0.1,0.3,0.4,0.5,0.7,0.5c0.2,0,0.4-0.1,0.5-0.2
								c0.1-0.1,0.2-0.3,0.2-0.7h1.7c0,0.7-0.2,1.3-0.7,1.6c-0.4,0.3-1.1,0.5-2.1,0.5s-1.8-0.4-2.3-1.1c-0.5-0.7-0.8-1.7-0.8-3.1
								c0-1.4,0.3-2.4,0.8-3.1c0.6-0.7,1.4-1.1,2.5-1.1c1,0,1.7,0.3,2.1,0.8c0.5,0.6,0.7,1.4,0.7,2.5v1.1H171.7z M169.6,51.1
								c0-0.7,0-1.2-0.1-1.5s-0.3-0.4-0.6-0.4s-0.5,0.1-0.6,0.3s-0.1,0.7-0.1,1.5L169.6,51.1L169.6,51.1z"/>
							<path class="st37" d="M177.1,49.1h-1.5v5.1c0,0.4,0.1,0.6,0.3,0.8c0.2,0.1,0.5,0.2,1,0.2v1.1h-1.4c-0.8,0-1.4-0.2-1.8-0.5
								c-0.4-0.3-0.6-0.8-0.6-1.5v-5.2h-0.9v-1h0.9v-2.5h2.5v2.5h1.5V49.1z"/>
							<path class="st37" d="M188.6,52.7c0,0.3,0,0.6-0.1,0.8s-0.2,0.4-0.4,0.6l-2.1,2.2h-1.2l-1.5-1.4l-1.4,1.4h-1.2l-2.7-2.6v-5.6
								h2.5v5.7l1.1,1.1l0.5-0.6v-6.2h2.5v5.7l1.1,1.1l0.5-0.6v-6.2h2.5v4.6H188.6z"/>
							<path class="st37" d="M196.2,52.2c0,1.5-0.3,2.5-0.8,3.2s-1.4,1-2.5,1s-1.9-0.3-2.4-1.1c-0.5-0.7-0.8-1.7-0.8-3.1
								c0-1.4,0.3-2.5,0.8-3.2s1.4-1,2.5-1c1.2,0,2,0.3,2.5,1C196,49.7,196.2,50.8,196.2,52.2 M193.7,52.2c0-1.3,0-2.1-0.1-2.4
								c-0.1-0.3-0.3-0.5-0.6-0.5s-0.5,0.2-0.6,0.5s-0.1,1.1-0.1,2.5c0,1.3,0,2.1,0.1,2.4c0.1,0.3,0.3,0.5,0.6,0.5s0.5-0.2,0.6-0.5
								C193.6,54.3,193.7,53.5,193.7,52.2"/>
							<path class="st37" d="M202.1,49.9c-0.2-0.1-0.4-0.1-0.6-0.2c-0.2,0-0.4-0.1-0.6-0.1c-0.2,0-0.5,0-0.7,0s-0.4,0.1-0.5,0.1v6.4
								h-2.5v-8.2h2l0.1,0.4c0.2-0.2,0.5-0.3,0.8-0.4c0.3-0.1,0.6-0.1,1-0.1c0.2,0,0.3,0,0.4,0c0.1,0,0.3,0.1,0.4,0.1v2H202.1z"/>
							<path class="st37" d="M209.9,56.3h-1.2c-0.6,0-1.1-0.1-1.4-0.4c-0.3-0.3-0.5-0.7-0.5-1.3V53c0-0.2-0.1-0.4-0.2-0.6
								c-0.2-0.1-0.4-0.2-0.6-0.2h-0.6v4.1h-2.5V45.6h2.5V51h0.5c0.2,0,0.3,0,0.4-0.1c0.1-0.1,0.1-0.2,0.2-0.3l0.8-2.6h2l-0.8,2.5
								c-0.1,0.4-0.2,0.6-0.3,0.7c-0.1,0.1-0.2,0.2-0.4,0.2c0.5,0,0.9,0.1,1.2,0.3s0.4,0.5,0.4,0.9v1.9c0,0.2,0,0.3,0.1,0.4
								c0.1,0.1,0.3,0.1,0.6,0.1v1.3H209.9z"/>
							<path class="st37" d="M234.3,48.4c0.9,0,1.6,0.7,1.6,1.6c0,0.9-0.7,1.6-1.6,1.6c-0.9,0-1.6-0.7-1.6-1.6
								C232.8,49.1,233.5,48.4,234.3,48.4L234.3,48.4z M234.3,48.6c-0.7,0-1.3,0.6-1.3,1.3c0,0.8,0.6,1.3,1.3,1.3s1.3-0.6,1.3-1.3
								C235.6,49.2,235,48.6,234.3,48.6L234.3,48.6z M234,50.9h-0.3v-1.8c0.1,0,0.3,0,0.5,0c0.3,0,0.4,0.1,0.5,0.1
								c0.1,0.1,0.2,0.2,0.2,0.4s-0.2,0.4-0.3,0.4l0,0c0.2,0,0.3,0.2,0.3,0.4c0,0.3,0.1,0.4,0.1,0.4h-0.3c0-0.1-0.1-0.2-0.1-0.4
								s-0.2-0.3-0.4-0.3H234V50.9z M234,49.9h0.2c0.2,0,0.4-0.1,0.4-0.3s-0.1-0.3-0.4-0.3c-0.1,0-0.2,0-0.2,0V49.9z"/>
						</g>
					</g>
				</g>
				<g>
					<g>
						<g>
							<defs>
								<rect id="SVGID_75_" x="14.1" y="20.4" width="111.9" height="38.8"/>
							</defs>
							<clipPath id="SVGID_76_">
								<use xlink:href="#SVGID_75_"  style="overflow:visible;"/>
							</clipPath>
							<g class="st38">
								<g>
									<defs>
										<rect id="SVGID_77_" x="14.1" y="20.4" width="111.9" height="38.8"/>
									</defs>
									<defs>
										<rect id="SVGID_78_" x="14.1" y="20.4" width="111.9" height="38.8"/>
									</defs>
									<defs>
										<rect id="SVGID_79_" x="14.1" y="20.4" width="111.9" height="38.8"/>
									</defs>
									<defs>
										<rect id="SVGID_80_" x="14.1" y="20.4" width="111.9" height="38.8"/>
									</defs>
									<defs>
										<rect id="SVGID_81_" x="14.1" y="20.4" width="111.9" height="38.8"/>
									</defs>
									<defs>
										<rect id="SVGID_82_" x="14.1" y="20.4" width="111.9" height="38.8"/>
									</defs>
									<defs>
										<rect id="SVGID_83_" x="14.1" y="20.4" width="111.9" height="38.8"/>
									</defs>
									<defs>
										<rect id="SVGID_84_" x="14.1" y="20.4" width="111.9" height="38.8"/>
									</defs>
									<defs>
										<rect id="SVGID_85_" x="14.1" y="20.4" width="111.9" height="38.8"/>
									</defs>
									<defs>
										<rect id="SVGID_86_" x="14.1" y="20.4" width="111.9" height="38.8"/>
									</defs>
									<defs>
										<rect id="SVGID_87_" x="14.1" y="20.4" width="111.9" height="38.8"/>
									</defs>
									<defs>
										<rect id="SVGID_88_" x="14.1" y="20.4" width="111.9" height="38.8"/>
									</defs>
									<defs>
										<rect id="SVGID_89_" x="14.1" y="20.4" width="111.9" height="38.8"/>
									</defs>
									<defs>
										<rect id="SVGID_90_" x="14.1" y="20.4" width="111.9" height="38.8"/>
									</defs>
									<defs>
										<rect id="SVGID_91_" x="14.1" y="20.4" width="111.9" height="38.8"/>
									</defs>
									<defs>
										<rect id="SVGID_92_" x="14.1" y="20.4" width="111.9" height="38.8"/>
									</defs>
									<defs>
										<rect id="SVGID_93_" x="14.1" y="20.4" width="111.9" height="38.8"/>
									</defs>
									<defs>
										<rect id="SVGID_94_" x="14.1" y="20.4" width="111.9" height="38.8"/>
									</defs>
									<defs>
										<rect id="SVGID_95_" x="14.1" y="20.4" width="111.9" height="38.8"/>
									</defs>
									<defs>
										<rect id="SVGID_96_" x="14.1" y="20.4" width="111.9" height="38.8"/>
									</defs>
									<defs>
										<rect id="SVGID_97_" x="14.1" y="20.4" width="111.9" height="38.8"/>
									</defs>
									<defs>
										<rect id="SVGID_98_" x="14.1" y="20.4" width="111.9" height="38.8"/>
									</defs>
									<defs>
										<rect id="SVGID_99_" x="14.1" y="20.4" width="111.9" height="38.8"/>
									</defs>
									<defs>
										<rect id="SVGID_100_" x="14.1" y="20.4" width="111.9" height="38.8"/>
									</defs>
									<defs>
										<rect id="SVGID_101_" x="14.1" y="20.4" width="111.9" height="38.8"/>
									</defs>
									<defs>
										<rect id="SVGID_102_" x="14.1" y="20.4" width="111.9" height="38.8"/>
									</defs>
									<defs>
										<rect id="SVGID_103_" x="14.1" y="20.4" width="111.9" height="38.8"/>
									</defs>
									<defs>
										<rect id="SVGID_104_" x="14.1" y="20.4" width="111.9" height="38.8"/>
									</defs>
									<defs>
										<rect id="SVGID_105_" x="14.1" y="20.4" width="111.9" height="38.8"/>
									</defs>
									<defs>
										<rect id="SVGID_106_" x="14.1" y="20.4" width="111.9" height="38.8"/>
									</defs>
									<defs>
										<rect id="SVGID_107_" x="14.1" y="20.4" width="111.9" height="38.8"/>
									</defs>
									<defs>
										<rect id="SVGID_108_" x="14.1" y="20.4" width="111.9" height="38.8"/>
									</defs>
									<defs>
										<rect id="SVGID_109_" x="14.1" y="20.4" width="111.9" height="38.8"/>
									</defs>
									<defs>
										<rect id="SVGID_110_" x="14.1" y="20.4" width="111.9" height="38.8"/>
									</defs>
									<defs>
										<rect id="SVGID_111_" x="14.1" y="20.4" width="111.9" height="38.8"/>
									</defs>
									<defs>
										<rect id="SVGID_112_" x="14.1" y="20.4" width="111.9" height="38.8"/>
									</defs>
									<defs>
										<rect id="SVGID_113_" x="14.1" y="20.4" width="111.9" height="38.8"/>
									</defs>
									<defs>
										<rect id="SVGID_114_" x="14.1" y="20.4" width="111.9" height="38.8"/>
									</defs>
									<defs>
										<rect id="SVGID_115_" x="14.1" y="20.4" width="111.9" height="38.8"/>
									</defs>
									<defs>
										<rect id="SVGID_116_" x="14.1" y="20.4" width="111.9" height="38.8"/>
									</defs>
									<clipPath id="SVGID_117_">
										<use xlink:href="#SVGID_77_"  style="overflow:visible;"/>
									</clipPath>
									<clipPath id="SVGID_118_" class="st39">
										<use xlink:href="#SVGID_78_"  style="overflow:visible;"/>
									</clipPath>
									<clipPath id="SVGID_119_" class="st40">
										<use xlink:href="#SVGID_79_"  style="overflow:visible;"/>
									</clipPath>
									<clipPath id="SVGID_120_" class="st41">
										<use xlink:href="#SVGID_80_"  style="overflow:visible;"/>
									</clipPath>
									<clipPath id="SVGID_121_" class="st42">
										<use xlink:href="#SVGID_81_"  style="overflow:visible;"/>
									</clipPath>
									<clipPath id="SVGID_122_" class="st43">
										<use xlink:href="#SVGID_82_"  style="overflow:visible;"/>
									</clipPath>
									<clipPath id="SVGID_123_" class="st44">
										<use xlink:href="#SVGID_83_"  style="overflow:visible;"/>
									</clipPath>
									<clipPath id="SVGID_124_" class="st45">
										<use xlink:href="#SVGID_84_"  style="overflow:visible;"/>
									</clipPath>
									<clipPath id="SVGID_125_" class="st46">
										<use xlink:href="#SVGID_85_"  style="overflow:visible;"/>
									</clipPath>
									<clipPath id="SVGID_126_" class="st47">
										<use xlink:href="#SVGID_86_"  style="overflow:visible;"/>
									</clipPath>
									<clipPath id="SVGID_127_" class="st48">
										<use xlink:href="#SVGID_87_"  style="overflow:visible;"/>
									</clipPath>
									<clipPath id="SVGID_128_" class="st49">
										<use xlink:href="#SVGID_88_"  style="overflow:visible;"/>
									</clipPath>
									<clipPath id="SVGID_129_" class="st50">
										<use xlink:href="#SVGID_89_"  style="overflow:visible;"/>
									</clipPath>
									<clipPath id="SVGID_130_" class="st51">
										<use xlink:href="#SVGID_90_"  style="overflow:visible;"/>
									</clipPath>
									<clipPath id="SVGID_131_" class="st52">
										<use xlink:href="#SVGID_91_"  style="overflow:visible;"/>
									</clipPath>
									<clipPath id="SVGID_132_" class="st53">
										<use xlink:href="#SVGID_92_"  style="overflow:visible;"/>
									</clipPath>
									<clipPath id="SVGID_133_" class="st54">
										<use xlink:href="#SVGID_93_"  style="overflow:visible;"/>
									</clipPath>
									<clipPath id="SVGID_134_" class="st55">
										<use xlink:href="#SVGID_94_"  style="overflow:visible;"/>
									</clipPath>
									<clipPath id="SVGID_135_" class="st56">
										<use xlink:href="#SVGID_95_"  style="overflow:visible;"/>
									</clipPath>
									<clipPath id="SVGID_136_" class="st57">
										<use xlink:href="#SVGID_96_"  style="overflow:visible;"/>
									</clipPath>
									<clipPath id="SVGID_137_" class="st58">
										<use xlink:href="#SVGID_97_"  style="overflow:visible;"/>
									</clipPath>
									<clipPath id="SVGID_138_" class="st59">
										<use xlink:href="#SVGID_98_"  style="overflow:visible;"/>
									</clipPath>
									<clipPath id="SVGID_139_" class="st60">
										<use xlink:href="#SVGID_99_"  style="overflow:visible;"/>
									</clipPath>
									<clipPath id="SVGID_140_" class="st61">
										<use xlink:href="#SVGID_100_"  style="overflow:visible;"/>
									</clipPath>
									<clipPath id="SVGID_141_" class="st62">
										<use xlink:href="#SVGID_101_"  style="overflow:visible;"/>
									</clipPath>
									<clipPath id="SVGID_142_" class="st63">
										<use xlink:href="#SVGID_102_"  style="overflow:visible;"/>
									</clipPath>
									<clipPath id="SVGID_143_" class="st64">
										<use xlink:href="#SVGID_103_"  style="overflow:visible;"/>
									</clipPath>
									<clipPath id="SVGID_144_" class="st65">
										<use xlink:href="#SVGID_104_"  style="overflow:visible;"/>
									</clipPath>
									<clipPath id="SVGID_145_" class="st66">
										<use xlink:href="#SVGID_105_"  style="overflow:visible;"/>
									</clipPath>
									<clipPath id="SVGID_146_" class="st67">
										<use xlink:href="#SVGID_106_"  style="overflow:visible;"/>
									</clipPath>
									<clipPath id="SVGID_147_" class="st68">
										<use xlink:href="#SVGID_107_"  style="overflow:visible;"/>
									</clipPath>
									<clipPath id="SVGID_148_" class="st69">
										<use xlink:href="#SVGID_108_"  style="overflow:visible;"/>
									</clipPath>
									<clipPath id="SVGID_149_" class="st70">
										<use xlink:href="#SVGID_109_"  style="overflow:visible;"/>
									</clipPath>
									<clipPath id="SVGID_150_" class="st71">
										<use xlink:href="#SVGID_110_"  style="overflow:visible;"/>
									</clipPath>
									<clipPath id="SVGID_151_" class="st72">
										<use xlink:href="#SVGID_111_"  style="overflow:visible;"/>
									</clipPath>
									<clipPath id="SVGID_152_" class="st73">
										<use xlink:href="#SVGID_112_"  style="overflow:visible;"/>
									</clipPath>
									<clipPath id="SVGID_153_" class="st74">
										<use xlink:href="#SVGID_113_"  style="overflow:visible;"/>
									</clipPath>
									<clipPath id="SVGID_154_" class="st75">
										<use xlink:href="#SVGID_114_"  style="overflow:visible;"/>
									</clipPath>
									<clipPath id="SVGID_155_" class="st76">
										<use xlink:href="#SVGID_115_"  style="overflow:visible;"/>
									</clipPath>
									<clipPath id="SVGID_156_" class="st77">
										<use xlink:href="#SVGID_116_"  style="overflow:visible;"/>
									</clipPath>
									<path class="st78" d="M27.6,55.7c-5.3-2.5-8.3-5.8-8.2-9.6c0.5-10.7,25.7-21.6,56.2-24.3C84.8,21,93.4,21,101,21.7
										c-8.7-1.3-19.2-1.5-30.5-0.5C40,24,14.8,34.9,14.3,45.5c-0.2,5.2,5.5,9.4,15.1,12.1L27.6,55.7z"/>
									<path class="st79" d="M25.9,52.2c-1.6-1.6-2.4-3.4-2.3-5.2c0.4-9.8,23.8-19.9,52.1-22.4C80,24.2,84.3,24,88.5,24
										c7.7,0,15,0.7,21,2l0.1-0.4c-6.3-1.7-14.3-2.5-23-2.5c-4.1,0-8.4,0.2-12.7,0.6C45.8,26.2,22.5,36.4,22,46.3
										c-0.1,2.7,1.4,5.2,4.6,7.3L25.9,52.2z"/>
									<path class="st78" d="M50.5,53.1c-8,0-14.4-3.7-14.4-9.3s6.4-9.2,14.4-9.2c3.8,0,7.3,1,9.9,2.5l-3.2,2.3
										c-1.4-0.9-3.5-1.8-6.1-1.8c-3.7,0-6.1,1.9-6.1,6.3c0,4.4,2.4,6.3,6.1,6.3c2.6,0,4.7-0.9,6.1-1.8l3.2,2.3
										C57.8,52.2,54.3,53.1,50.5,53.1"/>
									<polygon class="st78" points="86.6,52.6 86.6,41.7 80.4,52.6 75,52.6 68,41.7 68,52.6 62.6,52.6 62.6,35.2 73,35.2 
										79.7,45.6 85.8,35.2 94.9,35.2 94.9,52.6 									"/>
									<path class="st78" d="M109.3,53.1c-6,0-9.9-2-11.3-3.4l3.2-2.1c1.6,1.3,5,2.7,8.1,2.7c2.7,0,4-0.5,4-1.3
										c0-1.5-3.2-1.9-6.4-2.6c-4.8-1.1-8.4-2.3-8.4-5.7c0-4.1,4.9-6.1,11.1-6.1c4.5,0,7.5,0.9,10.1,2.7l-3.1,2
										c-1.9-1.3-5.1-2-6.9-2c-2.9,0-4,0.6-4,1.4c0,1.3,2.5,1.4,6.5,2.3c5,1.1,8.7,2.7,8.7,6C121,50.8,116.6,53.1,109.3,53.1"/>
									<path class="st79" d="M35.1,58.5c0,0.1-0.1,0.2-0.1,0.4c-0.2,0.1-0.5,0.2-0.9,0.2c-1,0-1.5-0.6-1.5-1.4
										c0-1.2,0.8-1.6,1.7-1.6c0.3,0,0.7,0.1,0.9,0.2c-0.1,0.1-0.1,0.3-0.1,0.4H35c-0.2-0.3-0.4-0.4-0.7-0.4c-0.4,0-1,0.4-1,1.3
										c0,0.9,0.5,1.2,1,1.2C34.6,58.7,34.9,58.6,35.1,58.5L35.1,58.5z"/>
									<path class="st79" d="M35.6,57.2c0-0.5,0-0.8,0-1.2c0.2,0,0.5,0,0.7,0c0.4,0,0.8,0,0.9,0c0,0.1,0,0.1,0,0.2
										c0,0.1,0,0.1,0,0.2c-0.3,0-0.8-0.1-0.9-0.1c0,0.3,0,0.6,0,0.9c0.4,0,0.6,0,1,0c0,0.1,0,0.1,0,0.2c0,0,0,0.1,0,0.2
										c-0.3,0-0.6,0-1,0c0,0.2,0,0.4,0,0.5c0,0.2,0,0.4,0,0.5c0.3,0,0.6,0,1-0.1c0,0.1,0,0.1,0,0.2c0,0.1,0,0.1,0,0.2
										c-0.2,0-0.3,0-0.7,0c-0.7,0-0.8,0-0.9,0c0-0.4,0-0.7,0-1.2L35.6,57.2L35.6,57.2z"/>
									<path class="st79" d="M37.8,56c0.1,0,0.1,0,0.2,0s0.1,0,0.2,0c0.6,0.7,1.2,1.3,1.8,2c0-0.7,0-1.8,0-2c0.1,0,0.1,0,0.2,0
										c0.1,0,0.1,0,0.2,0c-0.1,1.2-0.1,1.8-0.1,2.9c-0.1,0-0.1,0-0.2,0c-0.1,0-0.1,0-0.2,0c-0.6-0.7-1.2-1.4-1.8-2
										c0,0.3,0,0.7,0,1c0,0.7,0,0.9,0,1.1c-0.1,0-0.1,0-0.2,0c-0.1,0-0.1,0-0.2,0c0-0.1,0.1-1.2,0.1-2.1
										C37.8,56.5,37.8,56.2,37.8,56"/>
									<path class="st79" d="M41.5,56.7c0-0.2,0-0.3,0-0.4c-0.2,0-0.5,0-0.8,0.1c0-0.1,0-0.1,0-0.2c0-0.1,0-0.1,0-0.2
										c0.4,0,0.6,0,1.1,0s0.7,0,1.1,0c0,0.1,0,0.1,0,0.2c0,0.1,0,0.1,0,0.2c-0.2,0-0.6-0.1-0.7-0.1c0,0.1,0,0.2,0,0.4v1
										c0,0.5,0,0.8,0,1.2c-0.1,0-0.2,0-0.3,0s-0.3,0-0.3,0c0-0.4,0-0.7,0-1.2L41.5,56.7L41.5,56.7z"/>
									<path class="st79" d="M43.3,57.2c0-0.5,0-0.8,0-1.2c0.2,0,0.5,0,0.7,0c0.4,0,0.8,0,0.9,0c0,0.1,0,0.1,0,0.2
										c0,0.1,0,0.1,0,0.2c-0.3,0-0.8-0.1-0.9-0.1c0,0.3,0,0.6,0,0.9c0.4,0,0.6,0,1,0c0,0.1,0,0.1,0,0.2c0,0,0,0.1,0,0.2
										c-0.3,0-0.6,0-1,0c0,0.2,0,0.4,0,0.5c0,0.2,0,0.4,0,0.5c0.3,0,0.6,0,1-0.1c0,0.1,0,0.1,0,0.2c0,0.1,0,0.1,0,0.2
										c-0.2,0-0.3,0-0.7,0c-0.7,0-0.8,0-0.9,0c0-0.4,0-0.7,0-1.2L43.3,57.2L43.3,57.2z"/>
									<path class="st79" d="M46.1,57.6L46.1,57.6v0.2c0,0.5,0,0.8,0,1.2c-0.1,0-0.2,0-0.3,0s-0.3,0-0.3,0c0-0.4,0-0.7,0-1.2v-0.6
										c0-0.5,0-0.8,0-1.2c0.1,0,0.2,0,0.3,0c0.2,0,0.3,0,0.6,0c0.4,0,0.6,0,0.7,0.1c0.2,0.1,0.3,0.3,0.3,0.6
										c0,0.4-0.2,0.7-0.7,0.8c0.3,0.5,0.6,1,0.9,1.4c-0.1,0-0.3,0-0.4,0c-0.1,0-0.3,0-0.4,0L46.1,57.6z M46.1,56.3
										c0,0.4,0,0.8,0,1.1h0.1c0.4,0,0.6-0.2,0.6-0.6C46.7,56.3,46.5,56.3,46.1,56.3"/>
									<path class="st79" d="M49.3,56.6c-0.1-0.2-0.3-0.4-0.5-0.4c-0.3,0-0.4,0.2-0.4,0.4c0,0.6,1.3,0.5,1.3,1.4
										c0,0.6-0.4,0.9-1.1,0.9c-0.3,0-0.6-0.1-0.7-0.2c0.1-0.2,0.1-0.3,0.1-0.5h0c0,0.2,0.2,0.5,0.6,0.5c0.3,0,0.5-0.2,0.5-0.4
										c0-0.6-1.3-0.5-1.3-1.4c0-0.6,0.4-0.9,0.9-0.9c0.3,0,0.5,0.1,0.7,0.2C49.4,56.3,49.4,56.4,49.3,56.6L49.3,56.6z"/>
									<path class="st79" d="M51.2,57.2c0-0.5,0-0.8,0-1.2c0.2,0,0.5,0,0.7,0c0.4,0,0.8,0,0.9,0c0,0.1,0,0.1,0,0.2
										c0,0.1,0,0.1,0,0.2c-0.3,0-0.8-0.1-0.9-0.1c0,0.3,0,0.6,0,0.9c0.4,0,0.6,0,1,0c0,0.1,0,0.1,0,0.2c0,0,0,0.1,0,0.2
										c-0.3,0-0.6,0-1,0v0.2c0,0.5,0,0.8,0,1.2c-0.1,0-0.2,0-0.3,0s-0.3,0-0.3,0c0-0.4,0-0.7,0-1.2v-0.6H51.2z"/>
									<path class="st79" d="M54.8,56c0.9,0,1.6,0.5,1.6,1.5c0,0.8-0.7,1.5-1.6,1.5c-0.9,0-1.6-0.5-1.6-1.5
										C53.2,56.7,53.8,56,54.8,56 M54.7,56.2c-0.6,0-0.9,0.6-0.9,1.3c0,0.9,0.4,1.2,0.9,1.2s0.9-0.4,0.9-1.3
										C55.7,56.7,55.3,56.2,54.7,56.2"/>
									<path class="st79" d="M57.5,57.6L57.5,57.6v0.2c0,0.5,0,0.8,0,1.2c-0.1,0-0.2,0-0.3,0s-0.3,0-0.3,0c0-0.4,0-0.7,0-1.2v-0.6
										c0-0.5,0-0.8,0-1.2c0.1,0,0.2,0,0.3,0c0.2,0,0.3,0,0.6,0c0.4,0,0.6,0,0.7,0.1c0.2,0.1,0.3,0.3,0.3,0.6
										c0,0.4-0.2,0.7-0.7,0.8c0.3,0.5,0.6,1,0.9,1.4c-0.1,0-0.3,0-0.4,0c-0.1,0-0.3,0-0.4,0L57.5,57.6z M57.5,56.3
										c0,0.4,0,0.8,0,1.1h0.1c0.4,0,0.6-0.2,0.6-0.6C58.2,56.3,58,56.3,57.5,56.3"/>
									<path class="st78" d="M60.9,57c-0.1,0.6-0.1,1.3-0.2,1.9c-0.1,0-0.1,0-0.2,0c-0.1,0-0.1,0-0.2,0c0.2-1,0.3-1.9,0.4-2.9
										c0.1,0,0.1,0,0.2,0c0.1,0,0.1,0,0.2,0c0.3,0.7,0.7,1.4,1,2c0.3-0.6,0.7-1.3,1-2c0.1,0,0.1,0,0.2,0c0.1,0,0.1,0,0.2,0
										c0.1,1,0.3,2.3,0.4,2.9c-0.1,0-0.2,0-0.3,0s-0.2,0-0.3,0c0-0.6-0.1-1.3-0.2-1.9l0,0c-0.3,0.6-0.6,1.3-0.9,1.9h-0.1H62
										C61.6,58.3,61.3,57.7,60.9,57L60.9,57z"/>
									<path class="st79" d="M64.3,57.2c0-0.5,0-0.8,0-1.2c0.2,0,0.5,0,0.7,0c0.4,0,0.8,0,0.9,0c0,0.1,0,0.1,0,0.2
										c0,0.1,0,0.1,0,0.2c-0.3,0-0.8-0.1-0.9-0.1c0,0.3,0,0.6,0,0.9c0.4,0,0.6,0,1,0c0,0.1,0,0.1,0,0.2c0,0,0,0.1,0,0.2
										c-0.3,0-0.6,0-1,0c0,0.2,0,0.4,0,0.5c0,0.2,0,0.4,0,0.5c0.3,0,0.6,0,1-0.1c0,0.1,0,0.1,0,0.2c0,0.1,0,0.1,0,0.2
										c-0.2,0-0.3,0-0.7,0c-0.7,0-0.8,0-0.9,0c0-0.4,0-0.7,0-1.2L64.3,57.2L64.3,57.2z"/>
									<path class="st79" d="M66.4,57.2c0-0.5,0-0.8,0-1.2c0.1,0,0.2,0,0.3,0c0.2,0,0.4,0,0.8,0c1,0,1.6,0.3,1.6,1.4
										c0,0.9-0.7,1.5-1.5,1.5c-0.4,0-0.7,0-0.9,0c-0.1,0-0.3,0-0.3,0c0-0.4,0-0.7,0-1.2V57.2z M67.1,57.9c0,0.2,0,0.7,0,0.8
										c0.1,0,0.2,0,0.4,0c0.6,0,1-0.4,1-1.3c0-0.7-0.4-1.1-1-1.1c-0.2,0-0.3,0-0.4,0c0,0.1,0,0.6,0,0.8V57.9z"/>
									<path class="st79" d="M69.7,57.2c0-0.5,0-0.8,0-1.2c0.1,0,0.2,0,0.3,0c0.1,0,0.3,0,0.3,0c0,0.4,0,0.7,0,1.2v0.6
										c0,0.5,0,0.8,0,1.2c-0.1,0-0.2,0-0.3,0c-0.1,0-0.3,0-0.3,0c0-0.4,0-0.7,0-1.2V57.2z"/>
									<path class="st79" d="M73.4,58.5c0,0.1-0.1,0.2-0.1,0.4c-0.2,0.1-0.5,0.2-0.9,0.2c-1,0-1.5-0.6-1.5-1.4
										c0-1.2,0.8-1.6,1.7-1.6c0.3,0,0.7,0.1,0.9,0.2c-0.1,0.1-0.1,0.3-0.1,0.4h-0.1c-0.2-0.3-0.4-0.4-0.7-0.4c-0.4,0-1,0.4-1,1.3
										c0,0.9,0.5,1.2,1,1.2C72.8,58.7,73.1,58.6,73.4,58.5L73.4,58.5z"/>
									<path class="st79" d="M76.2,58.9c-0.1,0-0.3,0-0.4,0s-0.2,0-0.4,0c-0.1-0.3-0.2-0.6-0.3-0.9c-0.2,0-0.4,0-0.5,0
										s-0.3,0-0.4,0c-0.1,0.3-0.2,0.6-0.3,0.9c-0.1,0-0.1,0-0.2,0s-0.1,0-0.2,0c0.2-0.5,0.8-2,1.2-2.9c0.1,0,0.1,0,0.2,0
										s0.1,0,0.2,0C75.3,57,75.8,58.3,76.2,58.9 M75,57.8c-0.1-0.3-0.2-0.7-0.4-1c-0.1,0.3-0.3,0.7-0.4,1H75z"/>
									<path class="st79" d="M77.2,57.6L77.2,57.6v0.2c0,0.5,0,0.8,0,1.2c-0.1,0-0.2,0-0.3,0s-0.3,0-0.3,0c0-0.4,0-0.7,0-1.2v-0.6
										c0-0.5,0-0.8,0-1.2c0.1,0,0.2,0,0.3,0c0.2,0,0.3,0,0.6,0c0.4,0,0.6,0,0.7,0.1c0.2,0.1,0.3,0.3,0.3,0.6
										c0,0.4-0.2,0.7-0.7,0.8c0.3,0.5,0.6,1,0.9,1.4c-0.1,0-0.3,0-0.4,0s-0.3,0-0.4,0L77.2,57.6z M77.2,56.3c0,0.4,0,0.8,0,1.1
										h0.1c0.4,0,0.6-0.2,0.6-0.6C77.9,56.3,77.7,56.3,77.2,56.3"/>
									<path class="st79" d="M79.1,57.2c0-0.5,0-0.8,0-1.2c0.2,0,0.5,0,0.7,0c0.4,0,0.8,0,0.9,0c0,0.1,0,0.1,0,0.2
										c0,0.1,0,0.1,0,0.2c-0.3,0-0.8-0.1-0.9-0.1c0,0.3,0,0.6,0,0.9c0.4,0,0.6,0,1,0c0,0.1,0,0.1,0,0.2c0,0,0,0.1,0,0.2
										c-0.3,0-0.6,0-1,0c0,0.2,0,0.4,0,0.5c0,0.2,0,0.4,0,0.5c0.3,0,0.6,0,1-0.1c0,0.1,0,0.1,0,0.2c0,0.1,0,0.1,0,0.2
										c-0.2,0-0.3,0-0.7,0c-0.7,0-0.8,0-0.9,0c0-0.4,0-0.7,0-1.2L79.1,57.2L79.1,57.2z"/>
									<path class="st79" d="M83.9,58.7C83.6,58.9,83.3,59,83,59c-0.5,0-0.8-0.3-0.8-0.7s0.3-0.7,0.8-0.9
										c-0.2-0.2-0.3-0.5-0.3-0.7c0-0.5,0.4-0.7,0.8-0.7s0.7,0.2,0.7,0.5S84,57,83.7,57.2c0.2,0.3,0.4,0.5,0.7,0.8
										c0.1-0.2,0.3-0.4,0.5-0.8c0.1,0.1,0.2,0.2,0.2,0.2c-0.2,0.3-0.4,0.5-0.6,0.7c0.2,0.2,0.4,0.5,0.6,0.7c-0.2,0-0.4,0-0.5,0
										s-0.2,0-0.3,0L83.9,58.7z M83.4,58.7c0.2,0,0.3-0.1,0.4-0.2c-0.3-0.3-0.5-0.6-0.7-0.9c-0.2,0.1-0.3,0.3-0.3,0.5
										C82.8,58.4,83,58.7,83.4,58.7 M83.5,57.1c0.1-0.1,0.3-0.3,0.3-0.6c0-0.2-0.1-0.3-0.3-0.3c-0.2,0-0.3,0.1-0.3,0.3
										S83.3,56.9,83.5,57.1"/>
									<path class="st79" d="M86.9,57c-0.1,0.6-0.1,1.3-0.2,1.9c-0.1,0-0.1,0-0.2,0s-0.1,0-0.2,0c0.2-1,0.3-1.9,0.4-2.9
										c0.1,0,0.1,0,0.2,0s0.1,0,0.2,0c0.3,0.7,0.7,1.4,1,2c0.3-0.6,0.7-1.3,1-2c0.1,0,0.1,0,0.2,0s0.1,0,0.2,0
										c0.1,1,0.3,2.3,0.4,2.9c-0.1,0-0.2,0-0.3,0c-0.1,0-0.2,0-0.3,0c0-0.6-0.1-1.3-0.2-1.9l0,0c-0.3,0.6-0.6,1.3-0.9,1.9h-0.1
										H88C87.6,58.3,87.3,57.7,86.9,57L86.9,57z"/>
									<path class="st79" d="M90.3,57.2c0-0.5,0-0.8,0-1.2c0.2,0,0.5,0,0.7,0c0.4,0,0.8,0,0.9,0c0,0.1,0,0.1,0,0.2
										c0,0.1,0,0.1,0,0.2c-0.3,0-0.8-0.1-0.9-0.1c0,0.3,0,0.6,0,0.9c0.4,0,0.6,0,1,0c0,0.1,0,0.1,0,0.2c0,0,0,0.1,0,0.2
										c-0.3,0-0.6,0-1,0c0,0.2,0,0.4,0,0.5c0,0.2,0,0.4,0,0.5c0.3,0,0.6,0,1-0.1c0,0.1,0,0.1,0,0.2c0,0.1,0,0.1,0,0.2
										c-0.2,0-0.3,0-0.7,0c-0.7,0-0.8,0-0.9,0c0-0.4,0-0.7,0-1.2L90.3,57.2L90.3,57.2z"/>
									<path class="st79" d="M92.4,57.2c0-0.5,0-0.8,0-1.2c0.1,0,0.2,0,0.3,0c0.2,0,0.4,0,0.8,0c1,0,1.6,0.3,1.6,1.4
										c0,0.9-0.7,1.5-1.5,1.5c-0.4,0-0.7,0-0.9,0c-0.1,0-0.3,0-0.3,0c0-0.4,0-0.7,0-1.2V57.2z M93.1,57.9c0,0.2,0,0.7,0,0.8
										c0.1,0,0.2,0,0.4,0c0.6,0,1-0.4,1-1.3c0-0.7-0.4-1.1-1-1.1c-0.2,0-0.3,0-0.4,0c0,0.1,0,0.6,0,0.8V57.9z"/>
									<path class="st79" d="M95.7,57.2c0-0.5,0-0.8,0-1.2c0.1,0,0.2,0,0.3,0c0.1,0,0.3,0,0.3,0c0,0.4,0,0.7,0,1.2v0.6
										c0,0.5,0,0.8,0,1.2c-0.1,0-0.2,0-0.3,0c-0.1,0-0.3,0-0.3,0c0-0.4,0-0.7,0-1.2V57.2z"/>
									<path class="st79" d="M99.4,58.5c0,0.1-0.1,0.2-0.1,0.4c-0.2,0.1-0.5,0.2-0.9,0.2c-1,0-1.5-0.6-1.5-1.4
										c0-1.2,0.8-1.6,1.7-1.6c0.3,0,0.7,0.1,0.9,0.2c-0.1,0.1-0.1,0.3-0.1,0.4h-0.1c-0.2-0.3-0.4-0.4-0.7-0.4c-0.4,0-1,0.4-1,1.3
										c0,0.9,0.5,1.2,1,1.2C98.8,58.7,99.1,58.6,99.4,58.5L99.4,58.5z"/>
									<path class="st79" d="M102.2,58.9c-0.1,0-0.3,0-0.4,0s-0.2,0-0.4,0c-0.1-0.3-0.2-0.6-0.3-0.9c-0.2,0-0.4,0-0.5,0
										s-0.3,0-0.4,0c-0.1,0.3-0.2,0.6-0.3,0.9c-0.1,0-0.1,0-0.2,0s-0.1,0-0.2,0c0.2-0.5,0.8-2,1.2-2.9c0.1,0,0.1,0,0.2,0
										s0.1,0,0.2,0C101.4,57,101.8,58.3,102.2,58.9 M101.1,57.8c-0.1-0.3-0.2-0.7-0.4-1c-0.1,0.3-0.3,0.7-0.4,1H101.1z"/>
									<path class="st79" d="M102.6,57.2c0-0.5,0-0.8,0-1.2c0.1,0,0.2,0,0.3,0c0.1,0,0.3,0,0.3,0c0,0.4,0,0.7,0,1.2v0.6
										c0,0.5,0,0.8,0,1.2c-0.1,0-0.2,0-0.3,0c-0.1,0-0.3,0-0.3,0c0-0.4,0-0.7,0-1.2V57.2z"/>
									<path class="st79" d="M104,57.2c0-0.5,0-0.8,0-1.2c0.1,0,0.2,0,0.3,0c0.2,0,0.4,0,0.8,0c1,0,1.6,0.3,1.6,1.4
										c0,0.9-0.7,1.5-1.5,1.5c-0.4,0-0.7,0-0.9,0c-0.1,0-0.3,0-0.3,0c0-0.4,0-0.7,0-1.2V57.2z M104.6,57.9c0,0.2,0,0.7,0,0.8
										c0.1,0,0.2,0,0.4,0c0.6,0,1-0.4,1-1.3c0-0.7-0.4-1.1-1-1.1c-0.2,0-0.3,0-0.4,0c0,0.1,0,0.6,0,0.8V57.9z"/>
									<path class="st79" d="M109.7,56.6c-0.1-0.2-0.3-0.4-0.5-0.4c-0.3,0-0.4,0.2-0.4,0.4c0,0.6,1.3,0.5,1.3,1.4
										c0,0.6-0.4,0.9-1.1,0.9c-0.3,0-0.6-0.1-0.7-0.2c0.1-0.2,0.1-0.3,0.1-0.5h0.1c0,0.2,0.2,0.5,0.6,0.5c0.3,0,0.5-0.2,0.5-0.4
										c0-0.6-1.3-0.5-1.3-1.4c0-0.6,0.4-0.9,0.9-0.9c0.3,0,0.5,0.1,0.7,0.2C109.8,56.3,109.8,56.4,109.7,56.6L109.7,56.6z"/>
									<path class="st79" d="M110.5,57.2c0-0.5,0-0.8,0-1.2c0.2,0,0.5,0,0.7,0c0.4,0,0.8,0,0.9,0c0,0.1,0,0.1,0,0.2
										c0,0.1,0,0.1,0,0.2c-0.3,0-0.8-0.1-0.9-0.1c0,0.3,0,0.6,0,0.9c0.4,0,0.6,0,1,0c0,0.1,0,0.1,0,0.2c0,0,0,0.1,0,0.2
										c-0.3,0-0.6,0-1,0c0,0.2,0,0.4,0,0.5c0,0.2,0,0.4,0,0.5c0.3,0,0.6,0,1-0.1c0,0.1,0,0.1,0,0.2c0,0.1,0,0.1,0,0.2
										c-0.2,0-0.3,0-0.7,0c-0.7,0-0.8,0-0.9,0c0-0.4,0-0.7,0-1.2L110.5,57.2L110.5,57.2z"/>
									<path class="st79" d="M113.3,57.6L113.3,57.6v0.2c0,0.5,0,0.8,0,1.2c-0.1,0-0.2,0-0.3,0c-0.1,0-0.3,0-0.3,0
										c0-0.4,0-0.7,0-1.2v-0.6c0-0.5,0-0.8,0-1.2c0.1,0,0.2,0,0.3,0c0.2,0,0.3,0,0.6,0c0.4,0,0.6,0,0.7,0.1
										c0.2,0.1,0.3,0.3,0.3,0.6c0,0.4-0.2,0.7-0.7,0.8c0.3,0.5,0.6,1,0.9,1.4c-0.1,0-0.3,0-0.4,0s-0.3,0-0.4,0L113.3,57.6z
										 M113.3,56.3c0,0.4,0,0.8,0,1.1h0.1c0.4,0,0.6-0.2,0.6-0.6C113.9,56.3,113.7,56.3,113.3,56.3"/>
									<path class="st79" d="M117.1,56c0.1,0,0.1,0,0.2,0s0.1,0,0.2,0c-0.3,0.7-0.8,1.9-1.1,2.9c-0.1,0-0.1,0-0.2,0s-0.1,0-0.2,0
										c-0.3-0.7-0.9-2.3-1.1-2.9c0.1,0,0.3,0,0.4,0s0.2,0,0.4,0c0.2,0.6,0.5,1.4,0.7,2.1C116.6,57.5,116.9,56.7,117.1,56"/>
									<path class="st79" d="M117.9,57.2c0-0.5,0-0.8,0-1.2c0.1,0,0.2,0,0.3,0c0.1,0,0.3,0,0.3,0c0,0.4,0,0.7,0,1.2v0.6
										c0,0.5,0,0.8,0,1.2c-0.1,0-0.2,0-0.3,0c-0.1,0-0.3,0-0.3,0c0-0.4,0-0.7,0-1.2V57.2z"/>
									<path class="st79" d="M121.6,58.5c0,0.1-0.1,0.2-0.1,0.4c-0.2,0.1-0.5,0.2-0.9,0.2c-1,0-1.5-0.6-1.5-1.4
										c0-1.2,0.8-1.6,1.7-1.6c0.3,0,0.7,0.1,0.9,0.2c-0.1,0.1-0.1,0.3-0.1,0.4h-0.1c-0.2-0.3-0.4-0.4-0.7-0.4c-0.4,0-1,0.4-1,1.3
										c0,0.9,0.5,1.2,1,1.2C121,58.7,121.3,58.6,121.6,58.5L121.6,58.5z"/>
									<path class="st79" d="M122.1,57.2c0-0.5,0-0.8,0-1.2c0.2,0,0.5,0,0.7,0c0.4,0,0.8,0,0.9,0c0,0.1,0,0.1,0,0.2
										c0,0.1,0,0.1,0,0.2c-0.3,0-0.8-0.1-0.9-0.1c0,0.3,0,0.6,0,0.9c0.4,0,0.6,0,1,0c0,0.1,0,0.1,0,0.2c0,0,0,0.1,0,0.2
										c-0.3,0-0.6,0-1,0c0,0.2,0,0.4,0,0.5c0,0.2,0,0.4,0,0.5c0.3,0,0.6,0,1-0.1c0,0.1,0,0.1,0,0.2c0,0.1,0,0.1,0,0.2
										c-0.2,0-0.3,0-0.7,0c-0.7,0-0.8,0-0.9,0c0-0.4,0-0.7,0-1.2L122.1,57.2L122.1,57.2z"/>
									<path class="st79" d="M125.4,56.6c-0.1-0.2-0.3-0.4-0.5-0.4c-0.3,0-0.4,0.2-0.4,0.4c0,0.6,1.3,0.5,1.3,1.4
										c0,0.6-0.4,0.9-1.1,0.9c-0.3,0-0.6-0.1-0.7-0.2c0.1-0.2,0.1-0.3,0.1-0.5h0.1c0,0.2,0.2,0.5,0.6,0.5c0.3,0,0.5-0.2,0.5-0.4
										c0-0.6-1.2-0.5-1.2-1.4c0-0.6,0.4-0.9,0.9-0.9c0.3,0,0.5,0.1,0.7,0.2C125.6,56.3,125.6,56.4,125.4,56.6L125.4,56.6z"/>
								</g>
							</g>
						</g>
					</g>
				</g>
			</g>
		</g>
	</g>
</g>
</svg>
