<?xml version="1.0" encoding="utf-8"?>
<!-- Generator: Adobe Illustrator 21.0.2, SVG Export Plug-In . SVG Version: 6.00 Build 0)  -->
<!DOCTYPE svg PUBLIC "-//W3C//DTD SVG 1.1//EN" "http://www.w3.org/Graphics/SVG/1.1/DTD/svg11.dtd">
<svg version="1.1" id="Layer_1" xmlns="http://www.w3.org/2000/svg" xmlns:xlink="http://www.w3.org/1999/xlink" x="0px" y="0px"
	 viewBox="0 0 150 150" style="enable-background:new 0 0 150 150;" xml:space="preserve">
<style type="text/css">
	.st0{clip-path:url(#SVGID_2_);}
	.st1{fill:#003052;}
	.st2{fill:none;stroke:#FFFFFF;stroke-width:0.8683;}
	.st3{fill:#FFFFFF;}
	.st4{fill:#00529B;}
	.st5{fill:none;stroke:#FFFFFF;stroke-width:0.8448;}
	.st6{fill:#F2CE1E;}
	.st7{fill:none;stroke:#FFFFFF;stroke-width:0.8673;}
	.st8{fill:#085F5D;}
	.st9{fill:none;stroke:#FFFFFF;stroke-width:0.6241;}
</style>
<g>
	<defs>
		<rect id="SVGID_1_" transform="matrix(-1 -1.224647e-16 1.224647e-16 -1 150 150)" width="150" height="150"/>
	</defs>
	<clipPath id="SVGID_2_">
		<use xlink:href="#SVGID_1_"  style="overflow:visible;"/>
	</clipPath>
	<g class="st0">
		<g id="Dark_Blue_Disk_1_">
			<path class="st1" d="M88.8,73.5c0-28.2-23.2-51-51.8-51c-28.6,0-51.8,22.9-51.8,51c0,28.2,23.2,51,51.8,51
				C65.6,124.5,88.8,101.7,88.8,73.5"/>
			<g>
				<g>
					<g>
						<path class="st2" d="M5.8,64.8c4.2-16.9,21.6-27.2,38.9-23C62,46.1,72.5,63.2,68.3,80.2C64.9,93.7,53.2,103,39.8,104"/>
						<g>
							
								<ellipse transform="matrix(0.9971 -7.619151e-02 7.619151e-02 0.9971 -7.8071 3.3377)" class="st3" cx="39.8" cy="104" rx="1.4" ry="1.4"/>
						</g>
					</g>
					<g>
						<path class="st2" d="M26.4,62.4c3.6-3.5,8.9-5.2,14.2-3.9c8,2,12.9,9.9,10.9,17.8c-1.6,6.3-7,10.6-13.2,11.1"/>
						<g>
							
								<ellipse transform="matrix(0.9991 -4.255515e-02 4.255515e-02 0.9991 -3.6832 1.7122)" class="st3" cx="38.4" cy="87.4" rx="1.4" ry="1.4"/>
						</g>
					</g>
					<g>
						<path class="st2" d="M48.4,88.9c-4.6,3.2-10.5,4.4-16.4,3c-10.8-2.7-17.4-13.4-14.7-24c2.6-10.6,13.5-17,24.3-14.4
							c5.9,1.5,10.6,5.3,13.1,10.3"/>
						<g>
							<ellipse transform="matrix(0.892 -0.452 0.452 0.892 -22.909 31.5487)" class="st3" cx="54.6" cy="63.7" rx="1.4" ry="1.4"/>
						</g>
					</g>
					<g>
						<path class="st2" d="M62.6,65.9c1.2,4.2,1.3,8.7,0.2,13.2c-3.5,14-17.9,22.5-32.1,19c-14.3-3.5-23-17.7-19.5-31.7
							c2.2-9,8.9-15.7,17.2-18.4"/>
						<g>
							
								<ellipse transform="matrix(0.9442 -0.3293 0.3293 0.9442 -14.2482 12.01)" class="st3" cx="28.3" cy="48.1" rx="1.4" ry="1.4"/>
						</g>
					</g>
					<g>
						<path class="st2" d="M52,107.9c-6.5,2.8-17.3,3.4-24.4,1.6C6.8,104.4-5.8,83.8-0.8,63.5c5.1-20.3,26-32.7,46.7-27.6
							C61.8,39.8,73,52.9,75,67.9"/>
						<g>
							
								<ellipse transform="matrix(0.9906 -0.1367 0.1367 0.9906 -8.5729 10.8892)" class="st3" cx="75" cy="67.9" rx="1.4" ry="1.4"/>
						</g>
					</g>
					<g>
						<path class="st2" d="M0.8,46.5c10.5-13.8,28.7-20.8,46.8-16.3c24.1,5.9,38.9,30,33,53.7c-5.9,23.7-30.3,38.1-54.4,32.2
							c-5.6-1.4-10.6-3.7-15.1-6.8"/>
						<g>
							
								<ellipse transform="matrix(0.5535 -0.8329 0.8329 0.5535 -86.0116 58.1736)" class="st3" cx="11.2" cy="109.3" rx="1.4" ry="1.4"/>
						</g>
					</g>
				</g>
			</g>
		</g>
		<g id="Medium_Blue_Disk_1_">
			<path class="st4" d="M81.4,133.5c0-26.3-21.3-47.6-47.6-47.6c-26.3,0-47.6,21.3-47.6,47.6c0,26.3,21.3,47.6,47.6,47.6
				C60.1,181.1,81.4,159.8,81.4,133.5"/>
			<g>
				<g>
					<g>
						<path class="st5" d="M33,162.3c-12.7-0.1-24.3-8.5-27.8-21.1c-4.2-15.3,5-31.2,20.6-35.5c15.2-4.1,30.9,4.3,35.6,18.8"/>
						<g>
							
								<ellipse transform="matrix(0.9491 -0.3149 0.3149 0.9491 -36.0675 25.6597)" class="st3" cx="61.4" cy="124.5" rx="1.4" ry="1.4"/>
						</g>
					</g>
					<g>
						<path class="st5" d="M33.9,147.1c-6.1,0.2-11.8-3.7-13.5-9.8c-2-7.1,2.3-14.5,9.6-16.5c4.3-1.2,8.8-0.2,12,2.4"/>
						<g>
							<ellipse transform="matrix(0.638 -0.77 0.77 0.638 -79.6277 76.8912)" class="st3" cx="42" cy="123.1" rx="1.4" ry="1.4"/>
						</g>
					</g>
					<g>
						<path class="st5" d="M16.8,127c2.1-5.1,6.5-9.2,12.2-10.8c9.8-2.7,19.9,3,22.5,12.6c2.6,9.6-3.1,19.5-12.9,22.2
							c-4.9,1.3-9.9,0.6-13.9-1.7"/>
						<g>
							
								<ellipse transform="matrix(0.504 -0.8637 0.8637 0.504 -116.7157 95.4377)" class="st3" cx="24.7" cy="149.3" rx="1.4" ry="1.4"/>
						</g>
					</g>
					<g>
						<path class="st5" d="M39.7,110.6c8.1,2,14.9,8.2,17.3,16.7c3.5,12.7-4.1,25.8-17.1,29.3c-12.9,3.5-26.2-3.9-29.7-16.6
							c-1-3.6-1.1-7.3-0.4-10.8"/>
						<g>
							
								<ellipse transform="matrix(0.1853 -0.9827 0.9827 0.1853 -119.1666 115.0413)" class="st3" cx="9.8" cy="129.4" rx="1.4" ry="1.4"/>
						</g>
					</g>
					<g>
						<path class="st5" d="M-1.3,131.4c1-14.3,11.1-27.1,25.9-31.1c18.8-5.1,38.1,5.7,43.2,24.1c5.1,18.4-6,37.5-24.8,42.6
							c-6,1.6-12.1,1.6-17.8,0.3"/>
						<g>
							
								<ellipse transform="matrix(0.2382 -0.9712 0.9712 0.2382 -143.1894 152.0255)" class="st3" cx="25.3" cy="167.3" rx="1.4" ry="1.4"/>
						</g>
					</g>
					<g>
						<path class="st5" d="M58.9,165.7c-4.2,3.3-9.1,5.8-14.6,7.2c-21.9,6-44.4-6.6-50.3-28.1c-5.9-21.5,7-43.7,28.9-49.7
							c16-4.3,32.3,1.2,42.2,12.8"/>
						<g>
							
								<ellipse transform="matrix(0.757 -0.6534 0.6534 0.757 -54.7054 68.7416)" class="st3" cx="65.1" cy="107.9" rx="1.4" ry="1.4"/>
						</g>
					</g>
				</g>
			</g>
		</g>
		<g id="Yellow_Disk_1_">
			<path class="st6" d="M146.8,125.8c0-21.4-18-38.8-40.1-38.8c-22.1,0-40.1,17.4-40.1,38.8c0,21.4,18,38.8,40.1,38.8
				C128.9,164.6,146.8,147.2,146.8,125.8"/>
			<g>
				<g>
					<g>
						<path class="st7" d="M105.5,149c-10.5-0.2-20.1-6.5-23.3-16.5c-4.1-12.6,3.5-26.3,17-30.5c13.5-4.2,27.7,2.7,31.8,15.3"/>
						<g>
							
								<ellipse transform="matrix(2.940778e-03 -1 1 2.940778e-03 -43.8331 253.9936)" class="st3" cx="105.5" cy="149" rx="1.4" ry="1.4"/>
						</g>
					</g>
					<g>
						<path class="st7" d="M106,136.3c-4.8-0.1-9.2-3.1-10.6-7.7c-1.9-5.9,1.6-12.2,7.9-14.1c4.1-1.3,8.4-0.3,11.4,2.2"/>
						<g>
							
								<ellipse transform="matrix(1.716587e-03 -1 1 1.716587e-03 -30.5202 241.8821)" class="st3" cx="105.9" cy="136.2" rx="1.4" ry="1.4"/>
						</g>
					</g>
					<g>
						<path class="st7" d="M92.4,119c1.9-3.8,5.3-6.9,9.8-8.3c8.4-2.6,17.3,1.7,19.9,9.6c2.6,7.9-2.2,16.4-10.6,19.1
							c-4.6,1.4-9.3,0.8-13.1-1.4"/>
						<g>
							
								<ellipse transform="matrix(0.4127 -0.9108 0.9108 0.4127 -54.0065 154.0438)" class="st3" cx="92.5" cy="118.9" rx="1.4" ry="1.4"/>
						</g>
					</g>
					<g>
						<path class="st7" d="M112.6,105.8c6.5,1.7,12,6.4,14.1,13c3.4,10.4-2.9,21.7-14,25.2c-11.1,3.5-22.9-2.2-26.3-12.6
							c-1.1-3.4-1.2-6.8-0.4-10"/>
						<g>
							
								<ellipse transform="matrix(0.2513 -0.9679 0.9679 0.2513 -18.1162 188.3782)" class="st3" cx="112.7" cy="105.9" rx="1.4" ry="1.4"/>
						</g>
					</g>
					<g>
						<path class="st7" d="M76.4,123.2c1.1-11.4,9.3-21.9,21.6-25.7c16.2-5,33.2,3.2,38.1,18.4c4.9,15.2-4.2,31.6-20.4,36.6
							c-5.6,1.7-11.3,1.9-16.5,0.7"/>
						<g>
							
								<ellipse transform="matrix(8.511388e-02 -0.9964 0.9964 8.511388e-02 -52.817 188.7725)" class="st3" cx="76.4" cy="123.1" rx="1.4" ry="1.4"/>
						</g>
					</g>
					<g>
						<path class="st7" d="M128.4,151.6c-3.3,2.5-7.2,4.5-11.4,5.8c-18.8,5.9-38.7-3.7-44.5-21.4c-5.7-17.7,4.9-36.8,23.8-42.6
							c14.1-4.4,28.9-0.1,37.7,9.8"/>
						<g>
							
								<ellipse transform="matrix(0.8054 -0.5927 0.5927 0.8054 -64.8775 105.5847)" class="st3" cx="128.4" cy="151.6" rx="1.4" ry="1.4"/>
						</g>
					</g>
				</g>
			</g>
		</g>
		<g id="Green_Disk_1_">
			<path class="st8" d="M138.3,83.6c0-17.3-14.2-31.4-31.8-31.4c-17.6,0-31.8,14.1-31.8,31.4c0,17.3,14.2,31.4,31.8,31.4
				C124,115,138.3,100.9,138.3,83.6"/>
			<g>
				<g>
					<g>
						<path class="st9" d="M121.7,95.3c-4.9,6.5-13.5,9.5-21.5,6.9c-10.1-3.3-15.5-14.4-12.1-24.7c3.4-10.3,14.4-15.9,24.5-12.5"/>
						<g>
							
								<ellipse transform="matrix(0.5974 -0.8019 0.8019 0.5974 -27.4913 135.9509)" class="st3" cx="121.7" cy="95.4" rx="1" ry="1"/>
						</g>
					</g>
					<g>
						<path class="st9" d="M113.6,89.1c-2.3,3-6.2,4.3-9.9,3.1c-4.7-1.6-7.2-6.7-5.6-11.4c1.1-3.1,3.6-5.4,6.6-6"/>
						<g>
							
								<ellipse transform="matrix(0.5964 -0.8027 0.8027 0.5964 -25.7446 127.1313)" class="st3" cx="113.5" cy="89.2" rx="1" ry="1"/>
						</g>
					</g>
					<g>
						<path class="st9" d="M96.1,89.7c-1.7-2.9-2.1-6.5-1-10c2.1-6.4,9-9.9,15.3-7.8c6.3,2.1,9.7,9,7.6,15.4
							c-1.2,3.5-3.8,6.2-6.9,7.5"/>
						<g>
							
								<ellipse transform="matrix(0.8588 -0.5122 0.5122 0.8588 -32.3568 61.8869)" class="st3" cx="96.1" cy="89.7" rx="1" ry="1"/>
						</g>
					</g>
					<g>
						<path class="st9" d="M96.7,71c4.1-3.3,9.7-4.6,15-2.8c8.4,2.8,12.8,11.9,10,20.4c-2.8,8.5-11.9,13.1-20.3,10.4
							c-2.7-0.9-5-2.4-6.7-4.4"/>
						<g>
							<ellipse transform="matrix(0.783 -0.622 0.622 0.783 -23.1968 75.5808)" class="st3" cx="96.7" cy="71" rx="1" ry="1"/>
						</g>
					</g>
					<g>
						<path class="st9" d="M91.6,101.6c-7.1-6-10.1-16-7-25.4c4.1-12.3,17.3-19.1,29.4-15.1c12.1,4,18.6,17.3,14.5,29.6
							c-1.4,4.3-3.9,7.9-7.1,10.6"/>
						<g>
							
								<ellipse transform="matrix(0.6451 -0.7641 0.7641 0.6451 -45.0964 106.0053)" class="st3" cx="91.6" cy="101.5" rx="1" ry="1"/>
						</g>
					</g>
					<g>
						<path class="st9" d="M133.8,82.3c0.1,3.3-0.3,6.6-1.4,9.9c-4.8,14.4-20.2,22.2-34.3,17.6c-14.1-4.7-21.7-20.1-16.9-34.5
							c3.6-10.8,13.1-17.9,23.7-18.8"/>
						<g>
							
								<ellipse transform="matrix(0.9997 -2.249153e-02 2.249153e-02 0.9997 -1.8188 3.03)" class="st3" cx="133.8" cy="82.4" rx="1" ry="1"/>
						</g>
					</g>
				</g>
			</g>
		</g>
	</g>
</g>
</svg>
