<svg id="Layer_1" data-name="Layer 1" xmlns="http://www.w3.org/2000/svg" viewBox="0 0 150 100"><defs><style>.cls-1{fill:#00539b;}</style></defs><title>Artboard 1</title><path class="cls-1" d="M17.57,60.16a8.75,8.75,0,0,0-1.93.2,4.1,4.1,0,0,0-1.49.63l-.49-.82H10V78.67h4.56V62.35h.8a2.65,2.65,0,0,1,1.65.42A1.49,1.49,0,0,1,17.56,64V78.67h4.56V63.88a3.35,3.35,0,0,0-1.2-2.73A5.13,5.13,0,0,0,17.57,60.16ZM97.73,42.75a7.06,7.06,0,0,0-3.46.8L94,42.93H90.5V57.12h4.28V45.26a3.21,3.21,0,0,1,.63-.14,5.26,5.26,0,0,1,.68,0,1.79,1.79,0,0,1,1.09.3,1.08,1.08,0,0,1,.39.92V57.12h4.28v-11a3.06,3.06,0,0,0-1.09-2.52A4.68,4.68,0,0,0,97.73,42.75Zm.13,51.51A45,45,0,0,1,63.79,74c0-.07.08-.13.11-.2a3.74,3.74,0,0,0,.21-1.38v-8H59.83v2.07a43.33,43.33,0,0,1-2.68-9.44h.91V46.78A3.62,3.62,0,0,0,57,44.07a43.56,43.56,0,0,1,2.46-9.62A5,5,0,0,0,63,35.71a5.91,5.91,0,0,0,3.57-.9A3.25,3.25,0,0,0,67.78,32H64.62a2.13,2.13,0,0,1-.37,1.21,1.28,1.28,0,0,1-2-.61A16.8,16.8,0,0,1,62,29a44.14,44.14,0,0,1,2.36-3.83c0,.09,0,.17,0,.27h3.77a3.94,3.94,0,0,0-1.24-3.18c-.07-.06-.16-.1-.23-.16a45.82,45.82,0,0,1,56.14-11.46,1,1,0,0,0-.09.28,1.15,1.15,0,1,0,.25-.57A46.15,46.15,0,0,0,66.36,21.91a5.85,5.85,0,0,0-3-.71A5.19,5.19,0,0,0,59,23a8.63,8.63,0,0,0-1.44,5.42,8.9,8.9,0,0,0,1.39,5.44c.08.11.17.21.26.3a43.89,43.89,0,0,0-2.5,9.59,5.62,5.62,0,0,0-3.56-1,17.29,17.29,0,0,0-2.49.17,10.14,10.14,0,0,0-2.21.57v2.09A7.67,7.67,0,0,1,50.1,45a9,9,0,0,1,1.83-.16,2.12,2.12,0,0,1,1.45.44,1.5,1.5,0,0,1,.5,1.18v1A2.13,2.13,0,0,0,53,47a4.29,4.29,0,0,0-1.38-.21A5,5,0,0,0,47.82,48a5.64,5.64,0,0,0-1.2,4,5.59,5.59,0,0,0,1.25,3.86,4.14,4.14,0,0,0,3.24,1.4,8,8,0,0,0,1.83-.18,3,3,0,0,0,1.2-.54l.43.58h2.24a43.67,43.67,0,0,0,3,10.31v7.83l-.89,1.05-1.85-1.91V64.49H52.79V75.25l-.89,1.07-1.85-1.91V64.49H45.78v9.69l4.65,4.5h2l2.44-2.49,2.58,2.49h2l3.73-3.79a3.81,3.81,0,0,0,.42-.51A45.35,45.35,0,0,0,97.84,94.59q2,.17,4,.17A45.6,45.6,0,0,0,142.07,71l-.29-.16A45.34,45.34,0,0,1,97.87,94.26ZM62.2,24.48q.23-1.1,1.14-1.1a.84.84,0,0,1,.77.38,2.24,2.24,0,0,1,.2.87Q63,26.42,62,28.33A22,22,0,0,1,62.2,24.48ZM53.88,54.84a1.61,1.61,0,0,1-.62.33,2.82,2.82,0,0,1-.88.14,1.2,1.2,0,0,1-1.15-.59,6.66,6.66,0,0,1-.32-2.65,5.69,5.69,0,0,1,.39-2.5,1.34,1.34,0,0,1,1.27-.73,1.67,1.67,0,0,1,.85.19,1,1,0,0,1,.47.57Zm90.21,13v0a.76.76,0,0,0,.6-.75.74.74,0,0,0-.28-.63,1.63,1.63,0,0,0-1-.23,5.61,5.61,0,0,0-.87.07V69.3h.49V68h.34a.58.58,0,0,1,.66.54,2.2,2.2,0,0,0,.21.78h.51a2.57,2.57,0,0,1-.19-.76C144.54,68.09,144.35,67.85,144.08,67.8Zm-.66-.2h-.35v-1a2.28,2.28,0,0,1,.35,0c.55,0,.74.27.74.54S143.83,67.61,143.42,67.61ZM37.65,32a4.21,4.21,0,0,0,1.41,2.72,4.43,4.43,0,0,0,3,1,8,8,0,0,0,1.51-.12,3.76,3.76,0,0,0,1.3-.58l.36.56h3.53V17.06H44.45v4.67a2.86,2.86,0,0,0-1-.41A6.9,6.9,0,0,0,42,21.2a4.29,4.29,0,0,0-2.62.79,4.33,4.33,0,0,0-1.54,2.19,8.48,8.48,0,0,0-.35,1.73,18.21,18.21,0,0,0-.14,2.24c0,.65,0,1.32.07,2S37.57,31.46,37.65,32Zm4.15-5.31q0-1.05.14-1.92a1.61,1.61,0,0,1,.42-1,1.52,1.52,0,0,1,1-.31,2.44,2.44,0,0,1,.49.05,5.61,5.61,0,0,1,.55.15v9.7a1,1,0,0,1-.47.23,4,4,0,0,1-.75.05,1.27,1.27,0,0,1-.89-.28,1.59,1.59,0,0,1-.41-.94q-.08-.67-.13-1.85t-.05-2.38Q41.75,27.76,41.8,26.71ZM11,20.26V35.57h4.46V19.15h1.44a1.31,1.31,0,0,1,.93.31,1,1,0,0,1,.33.8V35.57h4.56V20.66A3.14,3.14,0,0,0,21.45,18a5.4,5.4,0,0,0-3.34-.94,7.12,7.12,0,0,0-1.86.25,5,5,0,0,0-1.55.7,2.88,2.88,0,0,0-1.27-.7,7.22,7.22,0,0,0-2-.25,10,10,0,0,0-2.07.23,3.54,3.54,0,0,0-1.51.59l-.49-.82H3.71V35.57H8.27V19.15H9.71a1.31,1.31,0,0,1,.93.31A1,1,0,0,1,11,20.26ZM143.6,65h0a2.75,2.75,0,1,0,2.71,2.75A2.73,2.73,0,0,0,143.58,65Zm0,5.08a2.33,2.33,0,0,1,0-4.65h0a2.33,2.33,0,0,1,0,4.65ZM55.49,21.38H51.2V35.57h4.28ZM84.7,16l.16.33a39.3,39.3,0,0,1,20.58-3.8A38.69,38.69,0,0,1,132,26.2a37.42,37.42,0,0,1,8.7,27.54c-1.86,20.92-20.71,36.44-42,34.61a39.08,39.08,0,0,1-23.5-10.51,4.26,4.26,0,0,0,.82-.77,8.4,8.4,0,0,0,1.4-5.14q.89,1,1.86,1.89v4.84h4.28V77.24a32.77,32.77,0,0,0,15.38,5.34q1.44.12,2.86.12c16.7,0,31-12.59,32.45-29.24l-.33,0c-1.55,17.41-17.24,30.35-35,28.82a32.42,32.42,0,0,1-15.41-5.41v-9.3a1.86,1.86,0,0,1,.82-.24,10,10,0,0,1,1.17-.07,5.5,5.5,0,0,1,1.07.1,7.72,7.72,0,0,1,1,.27V64.65c.41.4.83.78,1.26,1.14V78.67h4.28V71.51h1a1.76,1.76,0,0,1,1.09.32,1.14,1.14,0,0,1,.42,1v2.8a2.94,2.94,0,0,0,.87,2.32,3.68,3.68,0,0,0,2.5.76h2.13v-2a2.26,2.26,0,0,1-1-.16.66.66,0,0,1-.26-.61V72.57A2,2,0,0,0,99.2,71a3.12,3.12,0,0,0-2-.57,1.6,1.6,0,0,0,.68-.3,21.27,21.27,0,0,0,2.41.35q.91.08,1.8.08a20.34,20.34,0,0,0,20.36-18.34,19.74,19.74,0,0,0-4.59-14.53,20.41,20.41,0,0,0-14-7.24,20.77,20.77,0,0,0-7.35.69c0-.65-.07-1.46-.07-2.45h6.23V27a9.37,9.37,0,0,0-.38-2.78c.6,0,1.21,0,1.82.09a26.57,26.57,0,0,1,18.22,9.42,25.68,25.68,0,0,1,6,18.91,26.21,26.21,0,0,1-14.39,21,1.07,1.07,0,1,0,.22.73,1.06,1.06,0,0,0,0-.41,26.58,26.58,0,0,0,14.59-21.28,26.05,26.05,0,0,0-6.06-19.18A26.94,26.94,0,0,0,104.14,24c-.67-.06-1.33-.08-2-.09a4.61,4.61,0,0,0-.66-1.23,4.45,4.45,0,0,0-3.68-1.46A5.21,5.21,0,0,0,93.46,23a6.39,6.39,0,0,0-1.15,2.55A27.19,27.19,0,0,0,87,28.21V24.44a1.89,1.89,0,0,1,.82-.24A10.44,10.44,0,0,1,89,24.13a5.57,5.57,0,0,1,1.07.1,7.66,7.66,0,0,1,1,.27v-3a3.83,3.83,0,0,0-.7-.21,3.77,3.77,0,0,0-.57-.06,32.21,32.21,0,0,1,4.59-1.42,1.1,1.1,0,0,0,2.11-.29,1.08,1.08,0,0,0-1-1.17,1.09,1.09,0,0,0-1.19,1,1,1,0,0,0,0,.16,32.55,32.55,0,0,0-5.46,1.76,6.32,6.32,0,0,0-1,.16,3.9,3.9,0,0,0-1.38.64l-.23-.65H82.77v3.3q-1.16.83-2.25,1.74v-1.2a3.6,3.6,0,0,0-1.32-3,5.6,5.6,0,0,0-3.61-1.06,17.24,17.24,0,0,0-2.49.17,10.16,10.16,0,0,0-2.21.57V24a7.61,7.61,0,0,1,1.67-.58,9,9,0,0,1,1.83-.16,2.12,2.12,0,0,1,1.45.44,1.5,1.5,0,0,1,.5,1.18v1a2.14,2.14,0,0,0-.9-.54A4.3,4.3,0,0,0,74,25.2a5,5,0,0,0-3.77,1.27,5.65,5.65,0,0,0-1.2,4,5.58,5.58,0,0,0,1.25,3.86A4,4,0,0,0,73,35.66a31.57,31.57,0,0,0-2.86,7.27h-.22v.92a31.44,31.44,0,0,0,2.35,20.47l-.55,0a5.09,5.09,0,0,0-4.28,1.76,4.84,4.84,0,0,0-.43.66,37.54,37.54,0,0,1-2.36-6.29,1.06,1.06,0,0,0,.56-.83,1.1,1.1,0,1,0-1.19,1,1.08,1.08,0,0,0,.28,0,37.9,37.9,0,0,0,2.51,6.59,11,11,0,0,0-.75,4.4A8.77,8.77,0,0,0,67.49,77a5,5,0,0,0,4.24,1.83A6,6,0,0,0,74.85,78,39.45,39.45,0,0,0,98.66,88.73q1.73.15,3.44.15c20.05,0,37.18-15.11,39-35.1A37.78,37.78,0,0,0,132.26,26a39.06,39.06,0,0,0-26.79-13.85A39.62,39.62,0,0,0,84.7,16Zm12,8a1.25,1.25,0,0,1,2.18,0c-.77.08-1.53.2-2.29.35A2.08,2.08,0,0,1,96.7,24Zm-.17.79c.8-.16,1.62-.29,2.45-.37a11.63,11.63,0,0,1,.15,2.19H96.44A15.36,15.36,0,0,1,96.53,24.78Zm-26.6,31a31.31,31.31,0,0,1-.3-7.92c.07-.78.17-1.55.3-2.32ZM94.71,69.47a1.14,1.14,0,0,1-.62.14h-.93V68.53q.85.4,1.75.73A.64.64,0,0,1,94.71,69.47Zm1.76-5-1.42,4.46h0a20.07,20.07,0,0,1-1.88-.79V62.73a15.09,15.09,0,0,0,3.51,1.75Zm7.36-33.75a20.08,20.08,0,0,1,13.77,7.12,19.41,19.41,0,0,1,4.51,14.29,20,20,0,0,1-21.8,18,20.92,20.92,0,0,1-2.19-.31,5.41,5.41,0,0,0,.41-1l1.22-3.58c.24,0,.47.08.71.1q.66.06,1.31.06A15.42,15.42,0,0,0,113.44,60l.19-.11a3.71,3.71,0,0,0,1.61-3.21V42.93H111v.34a4.49,4.49,0,0,0-1.13-.41,6.55,6.55,0,0,0-1.32-.12,4.24,4.24,0,0,0-2.6.79,4.35,4.35,0,0,0-1.53,2.18,8.94,8.94,0,0,0-.35,1.75,18.22,18.22,0,0,0-.14,2.25q0,1,.06,1.89a12.79,12.79,0,0,0,.21,1.61,4.47,4.47,0,0,0,1.35,2.73,4.24,4.24,0,0,0,2.81.85,7.05,7.05,0,0,0,1.86-.22,1.93,1.93,0,0,0,1.06-.58c0,.14,0,.26,0,.38s0,.22,0,.31a2.22,2.22,0,0,1-.6,1.68,2.62,2.62,0,0,1-1.87.57,11.62,11.62,0,0,1-1.84-.16,9.15,9.15,0,0,1-1.65-.4l-.51,2a10.52,10.52,0,0,0,2.13.53,16,16,0,0,0,2.32.17,8.65,8.65,0,0,0,3.28-.57,15.1,15.1,0,0,1-12.05,4.48c-.21,0-.41-.06-.62-.08l.13-.37H97.93a14.76,14.76,0,0,1-4.77-2.21V60.16h-2.4c-.15-.16-.3-.31-.44-.48A14.58,14.58,0,0,1,88.07,56V44.82a14.71,14.71,0,0,1,10.44-8.65,1.1,1.1,0,0,0,2.12-.29,1,1,0,0,0-.19-.67,3.33,3.33,0,0,0,.65-.38A3.29,3.29,0,0,0,102.25,32h-3a1.69,1.69,0,0,1-.31,1.16,1.24,1.24,0,0,1-.95.33,1.19,1.19,0,0,1-1.24-.86,5.7,5.7,0,0,1-.2-1.24A20.44,20.44,0,0,1,103.82,30.74ZM111,45.19v9.32a1.79,1.79,0,0,1-.54.25,2.71,2.71,0,0,1-.71.08,1.25,1.25,0,0,1-.88-.29,1.51,1.51,0,0,1-.39-.94c-.05-.46-.09-1-.13-1.7s-.05-1.4-.05-2.16q0-.73,0-1.67t.14-1.76a1.65,1.65,0,0,1,.42-1.07,1.54,1.54,0,0,1,1-.28,3.13,3.13,0,0,1,.57.06A2.18,2.18,0,0,1,111,45.19ZM80.52,26.86c.72-.62,1.47-1.21,2.25-1.77v6.53a26.83,26.83,0,0,0-2.25,2.49ZM73.75,28A1.34,1.34,0,0,1,75,27.29a1.69,1.69,0,0,1,.85.19,1,1,0,0,1,.47.57v2.65a32.39,32.39,0,0,0-2.13,2.93,1,1,0,0,1-.52-.47,6.59,6.59,0,0,1-.33-2.65A5.72,5.72,0,0,1,73.75,28Zm2.59,3.21v2.06a1.57,1.57,0,0,1-.62.33,2.79,2.79,0,0,1-.88.14,1.86,1.86,0,0,1-.3,0Q75.37,32.44,76.33,31.23Zm-3,4.47.21,0a8,8,0,0,0,1.83-.18A3,3,0,0,0,76.6,35l.43.58h2.4a26.14,26.14,0,0,0-3.51,7.27c-.19,0-.38,0-.55.09a7.86,7.86,0,0,0-1.67.62l-.24-.62h-3A31.26,31.26,0,0,1,73.36,35.69ZM71.75,76.63a1,1,0,0,1-1-.85,13.94,13.94,0,0,1-.21-2.62q1,1.39,2.2,2.68A1,1,0,0,1,71.75,76.63Zm1.07-1.21c-.82-.93-1.59-1.9-2.32-2.9,0-.29,0-.58,0-.9a24.53,24.53,0,0,1,.21-4.26,1,1,0,0,1,1-.86,1,1,0,0,1,1,.83A24.67,24.67,0,0,1,73,71.56,27.08,27.08,0,0,1,72.82,75.42Zm-.17-11.06a31,31,0,0,1-2.49-7.23h4V45.26a3.29,3.29,0,0,1,.63-.14c.19,0,.36,0,.52,0a26,26,0,0,0,1.81,16.19l.34-.16a25.62,25.62,0,0,1-1.77-16,1.67,1.67,0,0,1,.87.27,1.07,1.07,0,0,1,.4.92V57.12h4.28v-11a3.06,3.06,0,0,0-1.09-2.52,4.68,4.68,0,0,0-3-.88c-.29,0-.57,0-.83,0a25.75,25.75,0,0,1,3.56-7.21h.63v-.86a26.42,26.42,0,0,1,2.25-2.57v3.43H87V28.66A26.87,26.87,0,0,1,92.21,26a13.49,13.49,0,0,0-.2,2.43,11.06,11.06,0,0,0,.67,4.13A20.47,20.47,0,0,0,87.84,36l.23.24a20.15,20.15,0,0,1,4.75-3.35,5.39,5.39,0,0,0,.6,1,4.8,4.8,0,0,0,4.08,1.83c.34,0,.65,0,1,0v0a1,1,0,0,0,0,.11,15.1,15.1,0,0,0-10.38,8.11v-1H83.79V57.12h4.28v-.26a15,15,0,0,0,2,3.06l.22.24H88.88v5.21a20,20,0,0,1-3.28-3.58,1.07,1.07,0,0,0,.36-.7,1.15,1.15,0,1,0-.64.87,20.41,20.41,0,0,0,2.21,2.6,3.85,3.85,0,0,0-.61-.18,3.81,3.81,0,0,0-.78-.08,7,7,0,0,0-1.73.2,3.93,3.93,0,0,0-1.37.63l-.24-.65H79.27v8.9c-.64-.62-1.26-1.26-1.85-1.93a9.09,9.09,0,0,0-1.32-5.37A4.64,4.64,0,0,0,72.65,64.35ZM64.59,46a1.87,1.87,0,0,1,.82-.24,10.27,10.27,0,0,1,1.17-.07,5.52,5.52,0,0,1,1.07.1,7.76,7.76,0,0,1,1,.27V43a3.86,3.86,0,0,0-.7-.21,3.77,3.77,0,0,0-.78-.08,7,7,0,0,0-1.74.2,3.91,3.91,0,0,0-1.37.64l-.24-.65H60.31V57.12h4.28Zm23.48-7.38H83.79v3.26h4.28ZM33.78,57.12v-2h-4a3.09,3.09,0,0,1-1.87-.5,2.39,2.39,0,0,1-.67-2v-14H22.66V52.67A4,4,0,0,0,24,56a6.11,6.11,0,0,0,4,1.16ZM29.92,64.3a5.2,5.2,0,0,0-4.35,1.83,8.61,8.61,0,0,0-1.45,5.42A8.92,8.92,0,0,0,25.51,77a4.81,4.81,0,0,0,4.08,1.83,5.91,5.91,0,0,0,3.6-.89,3.29,3.29,0,0,0,1.16-2.78h-3A1.68,1.68,0,0,1,31,76.3a1.23,1.23,0,0,1-.94.33,1.2,1.2,0,0,1-1.24-.86,16.25,16.25,0,0,1-.3-4h6.24v-1.6a6.89,6.89,0,0,0-1.18-4.39A4.44,4.44,0,0,0,29.92,64.3Zm-1.36,5.4a8.31,8.31,0,0,1,.25-2.6,1.25,1.25,0,0,1,2.19.08,8.81,8.81,0,0,1,.24,2.53Zm2-34a5.9,5.9,0,0,0,3.6-.89A3.28,3.28,0,0,0,35.32,32h-3A1.69,1.69,0,0,1,32,33.19a1.23,1.23,0,0,1-.94.33,1.19,1.19,0,0,1-1.24-.86,16.17,16.17,0,0,1-.3-4h6.23V27a6.87,6.87,0,0,0-1.18-4.38,4.44,4.44,0,0,0-3.68-1.46A5.22,5.22,0,0,0,26.53,23a8.62,8.62,0,0,0-1.44,5.42,8.9,8.9,0,0,0,1.39,5.44A4.81,4.81,0,0,0,30.56,35.71ZM29.77,24a1.26,1.26,0,0,1,2.19.08,8.82,8.82,0,0,1,.24,2.53H29.52A8.33,8.33,0,0,1,29.77,24ZM41.63,60.16H37.31v4.33H35.67v1.77h1.63v9a3.09,3.09,0,0,0,1.05,2.57,4.93,4.93,0,0,0,3.12.84h2.43V76.77a3.38,3.38,0,0,1-1.81-.33,1.52,1.52,0,0,1-.47-1.31V66.25h2.61V64.49H41.63ZM40.35,42.75A5.21,5.21,0,0,0,36,44.58,8.61,8.61,0,0,0,34.56,50a8.9,8.9,0,0,0,1.39,5.44A4.81,4.81,0,0,0,40,57.26a5.9,5.9,0,0,0,3.6-.89,3.28,3.28,0,0,0,1.17-2.78h-3a1.69,1.69,0,0,1-.31,1.16,1.23,1.23,0,0,1-.94.33,1.2,1.2,0,0,1-1.24-.86,16.23,16.23,0,0,1-.3-4h6.23v-1.6A6.89,6.89,0,0,0,44,44.21,4.45,4.45,0,0,0,40.35,42.75ZM39,48.15a8.3,8.3,0,0,1,.25-2.6,1.26,1.26,0,0,1,2.19.08,8.85,8.85,0,0,1,.24,2.53Zm16.5-31.09H51.2v3.26h4.28Z"/></svg>